<svg xmlns="http://www.w3.org/2000/svg" viewBox="0 0 500 500"><g id="freepik--background-complete--inject-155"><rect y="382.4" width="500" height="0.25" style="fill:#ebebeb"></rect><rect x="416.78" y="398.49" width="33.12" height="0.25" style="fill:#ebebeb"></rect><rect x="322.53" y="401.21" width="8.69" height="0.25" style="fill:#ebebeb"></rect><rect x="396.59" y="389.21" width="19.19" height="0.25" style="fill:#ebebeb"></rect><rect x="52.46" y="390.89" width="43.19" height="0.25" style="fill:#ebebeb"></rect><rect x="104.56" y="390.89" width="6.33" height="0.25" style="fill:#ebebeb"></rect><rect x="131.47" y="395.11" width="93.68" height="0.25" style="fill:#ebebeb"></rect><path d="M237,337.8H43.91a5.71,5.71,0,0,1-5.7-5.71V60.66A5.71,5.71,0,0,1,43.91,55H237a5.71,5.71,0,0,1,5.71,5.71V332.09A5.71,5.71,0,0,1,237,337.8ZM43.91,55.2a5.46,5.46,0,0,0-5.45,5.46V332.09a5.46,5.46,0,0,0,5.45,5.46H237a5.47,5.47,0,0,0,5.46-5.46V60.66A5.47,5.47,0,0,0,237,55.2Z" style="fill:#ebebeb"></path><path d="M453.31,337.8H260.21a5.72,5.72,0,0,1-5.71-5.71V60.66A5.72,5.72,0,0,1,260.21,55h193.1A5.71,5.71,0,0,1,459,60.66V332.09A5.71,5.71,0,0,1,453.31,337.8ZM260.21,55.2a5.47,5.47,0,0,0-5.46,5.46V332.09a5.47,5.47,0,0,0,5.46,5.46h193.1a5.47,5.47,0,0,0,5.46-5.46V60.66a5.47,5.47,0,0,0-5.46-5.46Z" style="fill:#ebebeb"></path><rect x="93.42" y="133.43" width="112.19" height="124.08" transform="translate(299.02 390.93) rotate(180)" style="fill:#e0e0e0"></rect><rect x="89.84" y="133.43" width="116.36" height="124.08" transform="translate(296.03 390.93) rotate(180)" style="fill:#f0f0f0"></rect><rect x="94.76" y="137.39" width="106.7" height="114.42" transform="translate(296.22 389.19) rotate(180)" style="fill:#fff"></rect><rect x="94.76" y="137.39" width="3.09" height="114.42" transform="translate(192.6 389.19) rotate(180)" style="fill:#e0e0e0"></rect><rect x="148.08" y="169.1" width="3.09" height="104.22" transform="translate(-71.59 370.83) rotate(-90)" style="fill:#e0e0e0"></rect><rect x="94.76" y="214.48" width="108.36" height="5.18" transform="translate(297.87 434.15) rotate(180)" style="fill:#f0f0f0"></rect><rect x="300.42" y="133.43" width="112.19" height="124.08" style="fill:#e0e0e0"></rect><rect x="299.84" y="133.43" width="116.36" height="124.08" style="fill:#f0f0f0"></rect><rect x="304.57" y="137.39" width="106.7" height="114.42" style="fill:#fff"></rect><rect x="408.19" y="137.39" width="3.09" height="114.42" style="fill:#e0e0e0"></rect><rect x="354.86" y="169.1" width="3.09" height="104.22" transform="translate(135.2 577.61) rotate(-90)" style="fill:#e0e0e0"></rect><rect x="302.92" y="214.48" width="108.36" height="5.18" style="fill:#f0f0f0"></rect><rect x="230.18" y="144.39" width="19.19" height="27.15" style="fill:#f0f0f0"></rect><rect x="231.43" y="145.66" width="16.69" height="24.6" style="fill:#fafafa"></rect><rect x="254.28" y="153.8" width="19.19" height="27.15" style="fill:#f0f0f0"></rect><rect x="255.54" y="155.08" width="16.69" height="24.6" style="fill:#fafafa"></rect><rect x="228.5" y="173.11" width="17.28" height="24.45" transform="translate(422.47 -51.81) rotate(90)" style="fill:#f0f0f0"></rect><rect x="229.63" y="174.26" width="15.02" height="22.15" transform="translate(422.47 -51.81) rotate(90)" style="fill:#fafafa"></rect><rect x="258.27" y="180.63" width="19.19" height="27.15" transform="translate(462.07 -73.66) rotate(90)" style="fill:#f0f0f0"></rect><rect x="259.52" y="181.91" width="16.69" height="24.6" transform="translate(462.07 -73.66) rotate(90)" style="fill:#fafafa"></rect><rect x="234.34" y="199.84" width="15.02" height="21.26" transform="translate(483.71 420.93) rotate(180)" style="fill:#f0f0f0"></rect><rect x="235.32" y="200.84" width="13.07" height="19.26" transform="translate(483.71 420.93) rotate(180)" style="fill:#fafafa"></rect><polygon points="197.79 107.99 207.74 116.22 211.09 103.97 197.79 107.99" style="fill:#ebebeb"></polygon><polygon points="215.54 102.7 226.05 109.66 227.08 98.17 215.54 102.7" style="fill:#ebebeb"></polygon><polygon points="117.81 114.52 125.31 130.54 134.04 114.73 117.81 114.52" style="fill:#ebebeb"></polygon><polygon points="135.26 114.83 147.26 128.13 154.23 113.74 135.26 114.83" style="fill:#ebebeb"></polygon><polygon points="156.88 113.66 167.89 124.67 172.38 111.79 156.88 113.66" style="fill:#ebebeb"></polygon><polygon points="176.93 111.48 190.53 121.93 194.04 108.93 176.93 111.48" style="fill:#ebebeb"></polygon><path d="M174,112.42c-41.24,5-82.82,2-83.5,1.94l.14-1.82c1.09.09,109.7,7.9,149.17-23L241,91C225.54,103.05,199.84,109.3,174,112.42Z" style="fill:#e0e0e0"></path><polygon points="300.28 107.99 290.34 116.22 286.98 103.97 300.28 107.99" style="fill:#ebebeb"></polygon><polygon points="282.54 102.7 272.03 109.66 271 98.17 282.54 102.7" style="fill:#ebebeb"></polygon><polygon points="380.27 114.52 372.77 130.54 364.04 114.73 380.27 114.52" style="fill:#ebebeb"></polygon><polygon points="362.82 114.83 350.81 128.13 343.84 113.74 362.82 114.83" style="fill:#ebebeb"></polygon><polygon points="341.19 113.66 330.19 124.67 325.7 111.79 341.19 113.66" style="fill:#ebebeb"></polygon><polygon points="321.14 111.48 307.55 121.93 304.04 108.93 321.14 111.48" style="fill:#ebebeb"></polygon><path d="M324.06,112.42c41.23,5,82.82,2,83.49,1.94l-.13-1.82c-1.1.09-109.7,7.9-149.18-23L257.12,91C272.53,103.05,298.23,109.3,324.06,112.42Z" style="fill:#e0e0e0"></path><path d="M96.84,184.68c-3.3,0-6.84-.93-9.18-4.17-2.47-3.41-2.36-6.65-1.28-9a11.81,11.81,0,0,1-1.81-1.8,7.21,7.21,0,0,1-1.28-7.52,7.77,7.77,0,0,1,.88-1.63c-3.74-2.8-5.35-6.79-4.34-11.08a8.59,8.59,0,0,1,1.44-3.25c-3.59-7.48.32-20.48.49-21.06l1.74.53c0,.13-3.68,12.24-.84,19.17a6.68,6.68,0,0,1,5.21-.91c3.17.61,6.74,3.16,6.4,5.4-.18,1.16-1.31,2.43-5.73,1.95A8.61,8.61,0,0,1,82.32,148a7.81,7.81,0,0,0-.72,2c-1.08,4.6,1.49,7.6,3.77,9.28a7.75,7.75,0,0,1,4.24-2.09,5.49,5.49,0,0,1,5.29,2.39c1.22,1.7.72,2.76.31,3.24-1.44,1.67-5.53.9-8.65-.68-.3-.16-.59-.31-.88-.48a6.52,6.52,0,0,0-.7,1.3,5.48,5.48,0,0,0,1,5.7A10,10,0,0,0,87.35,170l.2-.24a5.77,5.77,0,0,1,7-1.61c1.65.92,1.79,2.06,1.72,2.66a3.32,3.32,0,0,1-2.62,2.54,7.79,7.79,0,0,1-5.79-.78c-.75,1.8-.69,4.24,1.22,6.89,4.56,6.29,15.37,1.89,15.48,1.85l.7,1.68A24.42,24.42,0,0,1,96.84,184.68Zm-8-13.67a5.87,5.87,0,0,0,4.31.58c.83-.24,1.3-.68,1.33-1s-.28-.58-.79-.87c-1.49-.83-3.42-.33-4.81,1.23ZM87,160.23l.42.22c3.2,1.63,6,1.65,6.44,1.12.06-.06,0-.39-.4-1a3.69,3.69,0,0,0-3.59-1.64A5.66,5.66,0,0,0,87,160.23Zm-3.45-13.7a6.8,6.8,0,0,0,5.22,3c3,.33,3.71-.25,3.74-.41.1-.67-1.94-2.76-5-3.34A4.87,4.87,0,0,0,83.51,146.53Z" style="fill:#e0e0e0"></path><path d="M68.67,186.61c-4.77-1.54-7-6.91-7.1-11.25a11.76,11.76,0,0,1,.55-3.87,10.23,10.23,0,0,1-1.62-8.37A11.27,11.27,0,0,1,62,159.38a15,15,0,0,1,.12-8,10.14,10.14,0,0,1,1.75-3.53c-.14-7.44,9.71-16.36,10.2-16.8l1.22,1.36c-.11.09-8.39,7.58-9.49,13.88a4.65,4.65,0,0,1,2.8-.33,4.58,4.58,0,0,1,4,4.18,4.16,4.16,0,0,1-2.46,4.32c-1,.34-3,.44-5.12-2.78a6.12,6.12,0,0,1-.64-1.21,10.1,10.1,0,0,0-.53,1.42,13.94,13.94,0,0,0-.4,5.8,4.68,4.68,0,0,1,2.76-1.18,4,4,0,0,1,4,2.31A3.85,3.85,0,0,1,69.7,163c-1,1.07-2.65,1.26-4.46.51a4.93,4.93,0,0,1-2.29-2,10.09,10.09,0,0,0-.67,2,8.66,8.66,0,0,0,.73,6.08,5.89,5.89,0,0,1,3-2.47c2-.73,3.82-.29,4.82,1.18a4.17,4.17,0,0,1-.29,5c-.62.69-2.41,2.1-5.84.32a8,8,0,0,1-1.07-.65,10.32,10.32,0,0,0-.22,2.4c.06,3.71,1.91,8.28,5.83,9.55Zm-4.43-15.52a6.29,6.29,0,0,0,1.28.88c1.64.85,2.94.87,3.64.08a2.34,2.34,0,0,0,.15-2.73c-.51-.76-1.47-.93-2.69-.49A4.32,4.32,0,0,0,64.24,171.09Zm-.19-11.38a3.7,3.7,0,0,0,1.88,2.14c1.1.45,2,.42,2.46-.09a2.06,2.06,0,0,0,.23-2.2,2.2,2.2,0,0,0-2.27-1.24A3.38,3.38,0,0,0,64.05,159.71Zm1.72-11.21a5.22,5.22,0,0,0,.81,2.16c1.06,1.58,2.19,2.35,3,2.07a2.44,2.44,0,0,0,1.23-2.47,2.73,2.73,0,0,0-2.53-2.52A2.86,2.86,0,0,0,65.77,148.5Z" style="fill:#e0e0e0"></path><path d="M110.32,131.31c-17.06,18.42-42-12.8-31.07-27.41S127.63,112.62,110.32,131.31Z" style="fill:#e0e0e0"></path><path d="M77,144.54c-24.93-3-14.21-41.54,4-41.24S102.31,147.63,77,144.54Z" style="fill:#ebebeb"></path><path d="M268.41,107.86c-10.7,11.55-26.32-8-19.48-17.18S279.26,96.15,268.41,107.86Z" style="fill:#e0e0e0"></path><path d="M231.07,107.86c10.7,11.55,26.33-8,19.48-17.18S220.22,96.15,231.07,107.86Z" style="fill:#e0e0e0"></path><path d="M252.55,115.56c15.63-1.92,8.91-26-2.53-25.86S236.7,117.5,252.55,115.56Z" style="fill:#ebebeb"></path><path d="M400.37,184.68a24.42,24.42,0,0,1-8.47-1.7l.7-1.68c.11,0,10.92,4.44,15.48-1.85,1.92-2.65,2-5.09,1.22-6.89a7.79,7.79,0,0,1-5.79.78,3.33,3.33,0,0,1-2.62-2.54c-.06-.6.07-1.74,1.72-2.66a5.77,5.77,0,0,1,7.05,1.61l.2.24a10,10,0,0,0,1.37-1.39,5.48,5.48,0,0,0,1-5.7,7.12,7.12,0,0,0-.71-1.3c-.28.17-.57.32-.87.48-3.12,1.58-7.21,2.36-8.65.68-.41-.48-.92-1.54.31-3.24a5.5,5.5,0,0,1,5.29-2.39,7.75,7.75,0,0,1,4.23,2.09c2.29-1.68,4.86-4.68,3.77-9.28a7.82,7.82,0,0,0-.71-2,8.64,8.64,0,0,1-6.22,3.37c-4.43.49-5.56-.79-5.74-1.95-.33-2.24,3.23-4.79,6.4-5.4a6.67,6.67,0,0,1,5.21.91c2.84-6.93-.8-19-.84-19.17l1.74-.53c.18.58,4.08,13.58.49,21.06a8.76,8.76,0,0,1,1.45,3.25c1,4.29-.6,8.28-4.34,11.08a8.26,8.26,0,0,1,.88,1.63,7.21,7.21,0,0,1-1.29,7.52,11.81,11.81,0,0,1-1.81,1.8c1.08,2.31,1.19,5.55-1.28,9C407.21,183.75,403.67,184.68,400.37,184.68Zm4.68-15.35a3.14,3.14,0,0,0-1.55.4c-.52.29-.83.62-.8.87s.5.75,1.33,1a5.89,5.89,0,0,0,4.32-.58l-.05,0A4.45,4.45,0,0,0,405.05,169.33Zm1.83-10.42a3.7,3.7,0,0,0-3.09,1.67c-.43.6-.45.93-.4,1,.45.53,3.24.51,6.44-1.12l.42-.22a5.66,5.66,0,0,0-2.87-1.29A3.84,3.84,0,0,0,406.88,158.91Zm4.1-13.25a6.8,6.8,0,0,0-1.29.13c-3,.58-5.05,2.67-4.94,3.34,0,.16.76.74,3.73.41a6.78,6.78,0,0,0,5.22-3A4.29,4.29,0,0,0,411,145.66Z" style="fill:#e0e0e0"></path><path d="M428.54,186.61l-.55-1.73c3.91-1.27,5.77-5.84,5.83-9.55a11.53,11.53,0,0,0-.22-2.4,8.13,8.13,0,0,1-1.08.65c-3.42,1.78-5.22.37-5.83-.32a4.14,4.14,0,0,1-.29-5c1-1.47,2.79-1.91,4.81-1.18a6,6,0,0,1,3,2.47,8.71,8.71,0,0,0,.72-6.08,10.08,10.08,0,0,0-.66-2,5,5,0,0,1-2.3,2c-1.81.74-3.43.56-4.46-.51a3.87,3.87,0,0,1-.57-4.21,4,4,0,0,1,4-2.31,4.66,4.66,0,0,1,2.76,1.18,13.94,13.94,0,0,0-.4-5.8,11.27,11.27,0,0,0-.52-1.42,6.74,6.74,0,0,1-.65,1.21c-2.14,3.21-4.13,3.12-5.12,2.78a4.14,4.14,0,0,1-2.45-4.32,4.56,4.56,0,0,1,4-4.18,4.69,4.69,0,0,1,2.81.33c-1.11-6.3-9.39-13.79-9.49-13.88l1.21-1.36c.49.44,10.35,9.36,10.2,16.8a10,10,0,0,1,1.75,3.53,15,15,0,0,1,.13,8,11.26,11.26,0,0,1,1.52,3.74,10.22,10.22,0,0,1-1.61,8.37,12,12,0,0,1,.54,3.87C435.57,179.7,433.31,185.07,428.54,186.61Zm.84-18a1.67,1.67,0,0,0-1.47.73,2.34,2.34,0,0,0,.14,2.73c.71.79,2,.77,3.64-.08a6.37,6.37,0,0,0,1.29-.88,4.35,4.35,0,0,0-2.38-2.26A3.61,3.61,0,0,0,429.38,168.59Zm1.3-10.28a2.13,2.13,0,0,0-2.08,1.25,2.06,2.06,0,0,0,.22,2.2c.49.51,1.36.54,2.46.09a3.75,3.75,0,0,0,1.89-2.14,3.4,3.4,0,0,0-2.31-1.39Zm-1.21-10.62a3.14,3.14,0,0,0-3.09,2.57,2.44,2.44,0,0,0,1.23,2.47c.84.29,2-.49,3-2.07a5.24,5.24,0,0,0,.82-2.16A2.89,2.89,0,0,0,429.47,147.69Z" style="fill:#e0e0e0"></path><path d="M388.25,131.31c17.06,18.42,42-12.8,31.07-27.41S370.94,112.62,388.25,131.31Z" style="fill:#e0e0e0"></path><path d="M421.55,144.54c24.93-3,14.21-41.54-4-41.24S396.26,147.63,421.55,144.54Z" style="fill:#ebebeb"></path></g><g id="freepik--Shadow--inject-155"><ellipse id="freepik--path--inject-155" cx="250" cy="416.24" rx="193.89" ry="11.32" style="fill:#f5f5f5"></ellipse></g><g id="freepik--Plant--inject-155"><path d="M402.17,342.34c-.21,1.47,3.78,2.44,7,3-.26,2.67-2,5.37-4.49,7.89-3.09-1.74-7.49-4-8.3-3.48s3.62,3.53,6.44,5.25a58,58,0,0,1-6.39,4.84c-1.38-1.3-3-2.43-4-1.82s-.73,2.64-.24,4.42c-3.36,2-5.87,3.15-5.87,3.15a67.5,67.5,0,0,1-2.24-9.53c.17-.33.33-.67.49-1,.54-1.25,0-1.78-.88-2a33.53,33.53,0,0,1-.06-6.86c3.8-.8,8.42-2.27,6.69-4.55-1-1.38-2.95-1.53-4.94-1.19a8.61,8.61,0,0,1,.94-1.28c6.91-7.61,11.74,0,11.74,0,4-3.34,9.66-2.44,10.88,2.79C406.75,341.39,402.43,340.53,402.17,342.34Z" style="fill:#4085FF"></path><path d="M402.17,342.34c-.21,1.47,3.78,2.44,7,3-.26,2.67-2,5.37-4.49,7.89-3.09-1.74-7.49-4-8.3-3.48s3.62,3.53,6.44,5.25a58,58,0,0,1-6.39,4.84c-1.38-1.3-3-2.43-4-1.82s-.73,2.64-.24,4.42c-3.36,2-5.87,3.15-5.87,3.15a67.5,67.5,0,0,1-2.24-9.53c.17-.33.33-.67.49-1,.54-1.25,0-1.78-.88-2a33.53,33.53,0,0,1-.06-6.86c3.8-.8,8.42-2.27,6.69-4.55-1-1.38-2.95-1.53-4.94-1.19a8.61,8.61,0,0,1,.94-1.28c6.91-7.61,11.74,0,11.74,0,4-3.34,9.66-2.44,10.88,2.79C406.75,341.39,402.43,340.53,402.17,342.34Z" style="fill:#fff;isolation:isolate;opacity:0.30000000000000004"></path><path d="M393.55,398.33l1-.08c0-.52-4.09-51.53,7.36-56.34a3.88,3.88,0,0,1,3.47.09c4.14,2.15,6.12,11.08,6.14,11.17l1-.21c-.08-.39-2.1-9.48-6.65-11.85a4.89,4.89,0,0,0-4.32-.12C389.4,346.08,393.37,396.2,393.55,398.33Z" style="fill:#4085FF"></path><path d="M392.1,397.22c.21-2.29,4.88-56.27-3.86-62-2.09-1.38-4-1.67-5.55-.87-4.13,2.08-4.67,10.91-4.69,11.29l1,.05c0-.08.53-8.62,4.14-10.45,1.25-.62,2.78-.35,4.55.81,8.25,5.41,3.47,60.52,3.42,61.07Z" style="fill:#4085FF"></path><path d="M390.79,401.59c.07-1.76,1.51-43.08-6.45-46.69a5.55,5.55,0,0,0-4.73,0c-5.46,2.4-8.83,12.58-9,13l1,.31c0-.1,3.37-10.18,8.42-12.41a4.58,4.58,0,0,1,3.91,0c6.11,2.77,6.31,34,5.87,45.74Z" style="fill:#4085FF"></path><path d="M392.82,399.7l1-.12c-1.4-12.29-4.08-45.06.3-49a1.72,1.72,0,0,1,1.79-.55c2.93,1.13,4.72,11.78,5.16,15.79l1-.11c-.16-1.53-1.76-15.07-5.79-16.61a2.64,2.64,0,0,0-2.82.74C387.78,354.92,392.61,397.87,392.82,399.7Z" style="fill:#4085FF"></path><polygon points="409.5 376.39 373.58 376.39 376.58 416.63 406.5 416.63 409.5 376.39" style="fill:#263238"></polygon><polygon points="398.59 376.39 397.59 416.63 376.58 416.63 373.58 376.39 398.59 376.39" style="fill:#fff;isolation:isolate;opacity:0.2"></polygon><path d="M404.61,361.62c.37,1,3.16.21,5.36-.57.75,1.73.58,4-.07,6.4-2.5,0-6,.08-6.31.7s3.44.94,5.77,1a42,42,0,0,1-2.28,5.17c-1.3-.32-2.69-.46-3.07.24s.45,1.88,1.37,2.81c-1.4,2.36-2.54,4-2.54,4a49.35,49.35,0,0,1-4.65-5.11c0-.27,0-.53-.05-.81-.1-.95-.6-1.1-1.21-.9a22.78,22.78,0,0,1-2.39-4.22c2.07-1.79,4.41-4.29,2.56-5.1-1.11-.49-2.34.07-3.45,1a5.11,5.11,0,0,1,.14-1.11c1.65-7.07,7.24-4,7.24-4,1.33-3.44,5.12-4.82,7.66-2C407.1,359.46,404.15,360.41,404.61,361.62Z" style="fill:#4085FF"></path><path d="M404.61,361.62c.37,1,3.16.21,5.36-.57.75,1.73.58,4-.07,6.4-2.5,0-6,.08-6.31.7s3.44.94,5.77,1a42,42,0,0,1-2.28,5.17c-1.3-.32-2.69-.46-3.07.24s.45,1.88,1.37,2.81c-1.4,2.36-2.54,4-2.54,4a49.35,49.35,0,0,1-4.65-5.11c0-.27,0-.53-.05-.81-.1-.95-.6-1.1-1.21-.9a22.78,22.78,0,0,1-2.39-4.22c2.07-1.79,4.41-4.29,2.56-5.1-1.11-.49-2.34.07-3.45,1a5.11,5.11,0,0,1,.14-1.11c1.65-7.07,7.24-4,7.24-4,1.33-3.44,5.12-4.82,7.66-2C407.1,359.46,404.15,360.41,404.61,361.62Z" style="fill:#fff;isolation:isolate;opacity:0.30000000000000004"></path><path d="M377.93,366.4a13.57,13.57,0,0,1,3.29.69,7.93,7.93,0,0,0,.48-2.38c.23-7.25-5-4.19-7.7-6.32a5.94,5.94,0,0,0-4.58-1.44,11,11,0,0,1,.62,1.24,1.14,1.14,0,0,1-.88,1.55,3.26,3.26,0,0,1-2-.24,3.71,3.71,0,0,1-.52-.36,10,10,0,0,0-1,2.42,13.52,13.52,0,0,0-.47,3.1,11,11,0,0,1,1.21.34,1.13,1.13,0,0,1,.45,1.72,4.92,4.92,0,0,1-1.49,1,16.82,16.82,0,0,0,.91,3.4c.12,0,.25,0,.37.06s.52.12.78.19a2.23,2.23,0,0,1,.43.16,1.16,1.16,0,0,1,.68.88,1.11,1.11,0,0,1-.43,1,4.79,4.79,0,0,1-.53.34,7.93,7.93,0,0,0,2.87,2.89,31.08,31.08,0,0,0,3.05-1.61c-.22-.29-.43-.58-.64-.88a1.71,1.71,0,0,1-.3-1.14,1.52,1.52,0,0,1,.58-1,1.57,1.57,0,0,1,1.14-.31,1.53,1.53,0,0,1,1,.59c.24.36.51.69.77,1a19.17,19.17,0,0,0,3.68-3.58l-.11,0a11.74,11.74,0,0,0-2-.34,1.54,1.54,0,0,1,.39-3.05Z" style="fill:#4085FF"></path><path d="M377.93,366.4a13.57,13.57,0,0,1,3.29.69,7.93,7.93,0,0,0,.48-2.38c.23-7.25-5-4.19-7.7-6.32a5.94,5.94,0,0,0-4.58-1.44,11,11,0,0,1,.62,1.24,1.14,1.14,0,0,1-.88,1.55,3.26,3.26,0,0,1-2-.24,3.71,3.71,0,0,1-.52-.36,10,10,0,0,0-1,2.42,13.52,13.52,0,0,0-.47,3.1,11,11,0,0,1,1.21.34,1.13,1.13,0,0,1,.45,1.72,4.92,4.92,0,0,1-1.49,1,16.82,16.82,0,0,0,.91,3.4c.12,0,.25,0,.37.06s.52.12.78.19a2.23,2.23,0,0,1,.43.16,1.16,1.16,0,0,1,.68.88,1.11,1.11,0,0,1-.43,1,4.79,4.79,0,0,1-.53.34,7.93,7.93,0,0,0,2.87,2.89,31.08,31.08,0,0,0,3.05-1.61c-.22-.29-.43-.58-.64-.88a1.71,1.71,0,0,1-.3-1.14,1.52,1.52,0,0,1,.58-1,1.57,1.57,0,0,1,1.14-.31,1.53,1.53,0,0,1,1,.59c.24.36.51.69.77,1a19.17,19.17,0,0,0,3.68-3.58l-.11,0a11.74,11.74,0,0,0-2-.34,1.54,1.54,0,0,1,.39-3.05Z" style="fill:#fff;isolation:isolate;opacity:0.5"></path><path d="M375.86,341.41a9.39,9.39,0,0,0-2-1.07,5.37,5.37,0,0,1,.79-1.47c3.06-3.9,4.45,0,6.82.06a4.09,4.09,0,0,1,3,1.26,6.74,6.74,0,0,0-.87.38.77.77,0,0,0-.22,1.2,2.3,2.3,0,0,0,1.17.77,3.27,3.27,0,0,0,.44,0,6.76,6.76,0,0,1-.54,1.71,9.55,9.55,0,0,1-1.12,1.83,6.86,6.86,0,0,0-.78-.35.77.77,0,0,0-1,.7,3.57,3.57,0,0,0,.33,1.21,11.13,11.13,0,0,1-2,1.38l-.22-.13a4.59,4.59,0,0,0-.5-.24l-.29-.11a.76.76,0,0,0-.74.17.75.75,0,0,0-.24.73,2.47,2.47,0,0,0,.14.41,5.51,5.51,0,0,1-2.78.27,22.05,22.05,0,0,1-.9-2.19l.72-.18a1.18,1.18,0,0,0,.66-.47,1,1,0,0,0,.14-.79,1,1,0,0,0-.46-.66,1,1,0,0,0-.79-.14c-.29.08-.57.14-.86.2a13,13,0,0,1-.37-3.49l.08,0a10,10,0,0,1,1.22.72,1.05,1.05,0,0,0,1.45-.32A1.08,1.08,0,0,0,375.86,341.41Z" style="fill:#4085FF"></path><path d="M375.86,341.41a9.39,9.39,0,0,0-2-1.07,5.37,5.37,0,0,1,.79-1.47c3.06-3.9,4.45,0,6.82.06a4.09,4.09,0,0,1,3,1.26,6.74,6.74,0,0,0-.87.38.77.77,0,0,0-.22,1.2,2.3,2.3,0,0,0,1.17.77,3.27,3.27,0,0,0,.44,0,6.76,6.76,0,0,1-.54,1.71,9.55,9.55,0,0,1-1.12,1.83,6.86,6.86,0,0,0-.78-.35.77.77,0,0,0-1,.7,3.57,3.57,0,0,0,.33,1.21,11.13,11.13,0,0,1-2,1.38l-.22-.13a4.59,4.59,0,0,0-.5-.24l-.29-.11a.76.76,0,0,0-.74.17.75.75,0,0,0-.24.73,2.47,2.47,0,0,0,.14.41,5.51,5.51,0,0,1-2.78.27,22.05,22.05,0,0,1-.9-2.19l.72-.18a1.18,1.18,0,0,0,.66-.47,1,1,0,0,0,.14-.79,1,1,0,0,0-.46-.66,1,1,0,0,0-.79-.14c-.29.08-.57.14-.86.2a13,13,0,0,1-.37-3.49l.08,0a10,10,0,0,1,1.22.72,1.05,1.05,0,0,0,1.45-.32A1.08,1.08,0,0,0,375.86,341.41Z" style="fill:#fff;isolation:isolate;opacity:0.30000000000000004"></path><path d="M405.13,348.67c.21,1.47-3.77,2.43-7,3,.27,2.67,2,5.36,4.5,7.88,3.08-1.74,7.49-4,8.3-3.47s-3.62,3.53-6.44,5.24a57.88,57.88,0,0,0,6.38,4.84c1.39-1.29,3-2.43,4-1.81s.73,2.63.24,4.42c3.35,1.95,5.87,3.15,5.87,3.15a67.94,67.94,0,0,0,2.24-9.53c-.17-.34-.34-.68-.49-1-.54-1.25,0-1.79.88-2a33.61,33.61,0,0,0,.05-6.87c-3.8-.79-8.42-2.27-6.69-4.55,1-1.37,3-1.53,4.95-1.18a8.61,8.61,0,0,0-.94-1.28c-6.92-7.62-11.74,0-11.74,0-4-3.35-9.66-2.44-10.88,2.79C400.56,347.71,404.87,346.85,405.13,348.67Z" style="fill:#4085FF"></path><path d="M405.13,348.67c.21,1.47-3.77,2.43-7,3,.27,2.67,2,5.36,4.5,7.88,3.08-1.74,7.49-4,8.3-3.47s-3.62,3.53-6.44,5.24a57.88,57.88,0,0,0,6.38,4.84c1.39-1.29,3-2.43,4-1.81s.73,2.63.24,4.42c3.35,1.95,5.87,3.15,5.87,3.15a67.94,67.94,0,0,0,2.24-9.53c-.17-.34-.34-.68-.49-1-.54-1.25,0-1.79.88-2a33.61,33.61,0,0,0,.05-6.87c-3.8-.79-8.42-2.27-6.69-4.55,1-1.37,3-1.53,4.95-1.18a8.61,8.61,0,0,0-.94-1.28c-6.92-7.62-11.74,0-11.74,0-4-3.35-9.66-2.44-10.88,2.79C400.56,347.71,404.87,346.85,405.13,348.67Z" style="fill:#fff;isolation:isolate;opacity:0.5"></path></g><g id="freepik--character-3--inject-155"><rect x="307.42" y="224.59" width="116.16" height="83.12" style="fill:#4085FF"></rect><rect x="307.42" y="224.6" width="116.16" height="83.12" style="fill:#fff;isolation:isolate;opacity:0.6000000000000001"></rect><rect x="307.42" y="220.32" width="116.16" height="4.27" style="fill:#4085FF"></rect><path d="M422.06,222.46a1.07,1.07,0,0,1-2.13,0,1.07,1.07,0,1,1,2.13,0Z" style="fill:#fff"></path><path d="M418.06,222.46a1.07,1.07,0,1,1-1.07-1.07A1.06,1.06,0,0,1,418.06,222.46Z" style="fill:#fff"></path><path d="M351,292.8a35,35,0,0,0-4.53,4.08c-1.66,1.72-3.35,3.68-5,5.68-1.13,1.39-2.23,2.8-3.26,4.16l-.72,1,0,0h-15c3.31-6.49,14.87-28.06,24.5-32.89h0a5.36,5.36,0,0,1,2.47-.62,4.34,4.34,0,0,1,1.49.29,5,5,0,0,1,1.86,1.31,9.16,9.16,0,0,1,1.9,3.43C356.09,283.61,355.27,289.73,351,292.8Z" style="fill:#263238"></path><path d="M346.48,296.88c-1.66,1.72-3.35,3.68-5,5.68-1.13,1.39-2.23,2.8-3.26,4.16l-.72,1a.08.08,0,0,0,0,0h-1.24a32.18,32.18,0,0,1,6.26-14.7,21,21,0,0,1,1.5-1.78A9.11,9.11,0,0,1,346.48,296.88Z" style="opacity:0.30000000000000004"></path><path d="M392,274.45c-.21.88-.4,1.74-.6,2.61-1,4.41-1.74,8.83-2.35,13.18-.25,1.76-.47,3.51-.66,5.24-.49,4.2-.82,8.3-1.05,12.24H341.24c.06-1.79.16-3.51.27-5.16.25-3.51.61-6.69,1-9.54.48-3.32,1-6.19,1.58-8.61a60,60,0,0,1,2.85-9.58h0c.14,0,1-.29,2.47-.62l.92-.2,1.07-.22c.65-.13,1.34-.26,2.07-.38l1.5-.25c1.34-.21,2.77-.4,4.22-.53l.87-.07h0a173.46,173.46,0,0,1,17.5.07l.71,0c1,.06,2.05.14,3.05.24,1.91.18,3.74.42,5.32.65l.67.1c.76.11,1.46.23,2.07.33C391,274.25,392,274.45,392,274.45Z" style="fill:#263238"></path><path d="M391.43,277.06c-1,4.41-1.74,8.83-2.35,13.18-.25,1.76-.47,3.51-.66,5.24-.49,4.2-.82,8.3-1.05,12.24h-1.53a102.43,102.43,0,0,1-3.27-19.18c-.05-1-.08-1.87-.08-2.71a23.79,23.79,0,0,1,.29-4.06C383.6,277.1,388.54,276.81,391.43,277.06Z" style="opacity:0.30000000000000004"></path><path d="M413.84,307.72H398a112.22,112.22,0,0,0-9.62-12.24c-3.27-3.55-5-4.86-5.85-6.94l-.08-.21a9.2,9.2,0,0,1-.5-2.81c-.22-4.73,2.38-11,10-11.07C399.13,274.42,409.45,297.2,413.84,307.72Z" style="fill:#263238"></path><path d="M362.38,277.59l-.42,0-.4,0h-.08a33.92,33.92,0,0,0-6.78,1.57,45.58,45.58,0,0,0-10.59,5.18c-6.7,4.37-14.21,11.54-20.69,23.31h-5.84l23.69-33.52s-1.33-3.66.78-6.3c0,0,.79,3.77,3.69,4.45a16.12,16.12,0,0,0,3.39.31c1.27,0,2.56-.06,3.58-.14,1.18-.08,2-.17,2-.17a3.4,3.4,0,0,0,.3.8c.6,1.28,2.39,3.74,7.34,4.43Z" style="fill:#4085FF"></path><path d="M416.77,307.72h-10c-4.19-6.66-10.95-12.64-17.7-17.48-2.23-1.59-4.46-3.07-6.59-4.41l-.5-.31a142.74,142.74,0,0,0-13.2-7.27l-.87-.41-.5-.23h0a39.16,39.16,0,0,0,6.28-1.11,20.32,20.32,0,0,0,7.7-3.58,6.36,6.36,0,0,0,.6-.55l.28,0c.53.05,1.76.16,3.29.28l3.08.21,1.39.07.29,0h.14a28.6,28.6,0,0,0,5.5,0c2.06-.53,4.79-3.3,4.79-3.3,1.71,2.38-1,5.94-1,5.94Z" style="fill:#4085FF"></path><path d="M362.38,277.59l-.42,0-.4,0h-.08c-6.79.38-10.54-2.74-12.35-5,2.73,0,5.58-.31,5.58-.31S355.56,276.65,362.38,277.59Z" style="opacity:0.2"></path><path d="M390.44,273c-2.13,2.81-10.09,5.6-13.45,6a17.27,17.27,0,0,1-8.2-.73,8,8,0,0,1-1.37-.64l0,0c10.91-1.08,14.58-5.24,14.58-5.24S388.39,272.8,390.44,273Z" style="opacity:0.2"></path><path d="M363.17,277.51c-11.36,1.6-16.77-17.79-23.23-22.8s-9.76-13.79-9.76-13.79,8.45,8.26,10.95,8.52,16.88,1.6,21.26,2.94a65.36,65.36,0,0,0,13.68,2.28c5,.45,8.57-1.93,12.79-2.52s11.35-6.48,15.43-8.15a22.85,22.85,0,0,1,5.72-1.81s-4.77,3.31-6.3,6.14-7,18.81-13.62,23.53-13.88,7.64-23.42,5.76Z" style="fill:#4085FF"></path><path d="M377.22,252l-4.92,4.08-6.7,5.56a22.07,22.07,0,0,1,.43,2.71c.36,3.63-.58,6.94-5.93,8.2,0,0-6.34,4.2,3.07,5a12.47,12.47,0,0,0,.47,3,12,12,0,0,1,3-2.92c10.29-.18,11.65-4.95,11.65-4.95C374.32,268.71,375.85,257.92,377.22,252Z" style="fill:#eec1bb"></path><path d="M365.6,261.64a22.07,22.07,0,0,1,.43,2.71c2.49-.5,5.83-3.16,6.18-5.72a12,12,0,0,0,.09-2.55Z" style="opacity:0.2"></path><path d="M361.06,231.33c-4,1.81-6.21,13-1.14,15.45S368.61,227.92,361.06,231.33Z" style="fill:#263238"></path><path d="M379.25,243.48c-1.71,7.87-2.31,12.54-7,16.13a10.46,10.46,0,0,1-16.92-7.53c-.62-7.32,2.28-19,10.56-21.18A10.59,10.59,0,0,1,379.25,243.48Z" style="fill:#eec1bb"></path><path d="M387.42,245.94a15.82,15.82,0,0,1-5.89,5.08,3.91,3.91,0,0,1-3.93-.27l-.21-.16a3.64,3.64,0,0,1-1.4-1.53c-1.44-2.56-2-7.46-.43-10.76-1.86-1.22-6-.73-10.2-1.31a18.29,18.29,0,0,1-3.56-.86,11.44,11.44,0,0,1-2-1,9.39,9.39,0,0,1-2.95-2.81,10.61,10.61,0,0,1-1.13-2.12,7.84,7.84,0,0,1,.13-5.63h12.73c2.65,2.3,6.24,3.8,9.29,3.12,8.14-1.84,14.32,3.44,10.49,8C392.19,237.38,390,242.61,387.42,245.94Z" style="fill:#263238"></path><path d="M362.81,236.06a11.27,11.27,0,0,1-8.53-10.67C353.47,231.11,357.92,236.82,362.81,236.06Z" style="fill:#263238"></path><path d="M381.06,251.69a8.64,8.64,0,0,1-5,3c-2.48.42-3-1.88-1.78-4.1,1.13-2,9.43-5.21,9.43-5.21S382.67,249.76,381.06,251.69Z" style="fill:#eec1bb"></path><path d="M366.84,244.26c-.1.65-.52,1.13-.95,1.08s-.68-.62-.58-1.26.52-1.13.94-1.08S366.94,243.62,366.84,244.26Z" style="fill:#263238"></path><path d="M359.52,243.39c-.1.65-.53,1.13-.95,1.08s-.69-.62-.59-1.26.53-1.13.95-1.08S359.62,242.75,359.52,243.39Z" style="fill:#263238"></path><path d="M361.8,244a24.62,24.62,0,0,1-3.95,5.15c1,1.2,3,.94,3,.94Z" style="fill:#d4827d"></path><path d="M369.47,242.18a.41.41,0,0,0,.18-.05.38.38,0,0,0,.15-.52,3.68,3.68,0,0,0-2.86-1.94.38.38,0,0,0-.41.36.39.39,0,0,0,.37.4,2.94,2.94,0,0,1,2.23,1.55A.38.38,0,0,0,369.47,242.18Z" style="fill:#263238"></path><path d="M356.76,240.51a.37.37,0,0,0,.31-.17,3.2,3.2,0,0,1,2.42-1.46.38.38,0,0,0,.38-.39.38.38,0,0,0-.38-.38h0a3.94,3.94,0,0,0-3.05,1.8.38.38,0,0,0,.1.53A.36.36,0,0,0,356.76,240.51Z" style="fill:#263238"></path><path d="M361.26,252.65a28.06,28.06,0,0,1,2.46,3l.62-.3c2.79-1.38,3.63-2.95,3.71-4.26a4,4,0,0,0-.37-1.87,4,4,0,0,0-.56-.93c-1,1.62-3.55,3.11-4.92,3.85C361.63,252.48,361.26,252.65,361.26,252.65Z" style="fill:#263238"></path><path d="M362.2,252.17l.75.87c2.63-1.31,4.3-2.58,4.73-3.79a4,4,0,0,0-.56-.93C366.08,249.94,363.57,251.43,362.2,252.17Z" style="fill:#fff"></path><path d="M364.34,255.38c2.79-1.38,3.63-2.95,3.71-4.26a10,10,0,0,0-2.79,2.15A3.73,3.73,0,0,0,364.34,255.38Z" style="fill:#a02724"></path><polygon points="365.8 250.68 367.4 252.22 366.84 250.03 364.34 251.12 362.39 252.38 363.88 254.25 363.58 252.14 366.07 250.68 365.8 250.68" style="fill:#fff"></polygon><circle cx="392.27" cy="296.68" r="7.47" style="opacity:0.4"></circle><path d="M392.27,298.72h0a2.18,2.18,0,0,1-2.18-2.17V294a2.18,2.18,0,0,1,2.18-2.17h0a2.18,2.18,0,0,1,2.18,2.17v2.59A2.18,2.18,0,0,1,392.27,298.72Z" style="fill:#fff"></path><path d="M392.27,300.55a4.18,4.18,0,0,1-4.17-4.18v-.79a.5.5,0,0,1,.5-.5.51.51,0,0,1,.5.5v.79a3.17,3.17,0,0,0,6.34,0v-.79a.5.5,0,0,1,1,0v.79A4.18,4.18,0,0,1,392.27,300.55Z" style="fill:#fff"></path><path d="M392.27,302.07a.5.5,0,0,1-.5-.5v-1.52a.5.5,0,1,1,1,0v1.52A.5.5,0,0,1,392.27,302.07Z" style="fill:#fff"></path><circle cx="411.18" cy="296.68" r="7.47" style="opacity:0.4"></circle><rect x="406.42" y="293.43" width="7.18" height="6.49" rx="0.77" style="fill:#fff"></rect><polygon points="415.94 298.87 413.61 297.56 413.61 295.79 415.94 294.48 415.94 298.87" style="fill:#fff"></polygon></g><g id="freepik--character-2--inject-155"><rect x="255.65" y="126.57" width="116.16" height="83.12" style="fill:#4085FF"></rect><rect x="255.66" y="126.58" width="116.16" height="83.12" style="fill:#fff;isolation:isolate;opacity:0.6000000000000001"></rect><rect x="255.65" y="122.3" width="116.16" height="4.27" style="fill:#4085FF"></rect><path d="M370.3,124.44a1.07,1.07,0,1,1-1.07-1.07A1.06,1.06,0,0,1,370.3,124.44Z" style="fill:#fff"></path><path d="M366.3,124.44a1.07,1.07,0,1,1-1.07-1.07A1.06,1.06,0,0,1,366.3,124.44Z" style="fill:#fff"></path><path d="M277.1,179.29l2.35-7.69,2.29-8.5-3.05-5.33-6,1,.4,4.94s-.55,4.37.59,7.29l-4,10.55Z" style="fill:#b55b52"></path><path d="M298.53,203.48l-.13,0c-1,.31-7.52,2.31-14.73,3.82-8.34,1.76-17.61,2.88-20.35,0-5.48-5.76.93-22.46.93-22.46h-1.91l-2.25-8,21.29-1.51s-8,17.58-6.85,18.94S293,189.44,293,189.44l2.77,7.05,2.62,6.68Z" style="fill:#4085FF"></path><path d="M298.41,203.17c0,.12,0,.23,0,.35-1,.31-7.52,2.31-14.73,3.82,3-9,12.12-10.85,12.12-10.85A10.32,10.32,0,0,1,298.41,203.17Z" style="opacity:0.2"></path><path d="M278.49,147.51s8.9,4.51,34.76,12,41.39,11.28,41.39,11.28-26.25-18.31-38.05-21.64S278.49,147.51,278.49,147.51Z" style="fill:#4085FF"></path><path d="M278.49,147.51s8.9,4.51,34.76,12,41.39,11.28,41.39,11.28-26.25-18.31-38.05-21.64S278.49,147.51,278.49,147.51Z" style="opacity:0.2"></path><path d="M305,147.56c-.83,2.52-20.33,5.61-10.23,21.69s15.92,5.22,12.73,23.36,19.83,6.11,31.59,9.89c21.13,6.79,29.58-23.9,13-25.67s-20.22-2.66-18.28-15.65S310.74,130.11,305,147.56Z" style="fill:#263238"></path><path d="M337.31,186c-1,6.09-1.69,11.28-2.23,15.8-.08.71-.16,1.39-.23,2.06-.24,2.09-.43,4-.58,5.86h-40c-.29-1.73-.55-3.32-.77-4.77-.45-3-.74-5.37-.91-7.31-.67-7.33.3-8.12.39-8.17h0s3.59-1,8-2c1.94-.43,4.05-.86,6.08-1.2l1.25-.19a116.43,116.43,0,0,1,14.28-.94c2.15-.05,4.28,0,6.23.1C333.64,185.46,337.31,186,337.31,186Z" style="fill:#4085FF"></path><path d="M319.83,167.73c-.62,5.08-.93,14.31,2.81,17.39,0,0-1,5.17-10.29,5.84-10.21.74-5.25-4.71-5.25-4.71,5.48-1.74,5-5.87,3.78-9.68Z" style="fill:#b55b52"></path><path d="M316.18,171.34l-5.29,5.23a15.92,15.92,0,0,1,.68,2.72c2.1-.46,4.86-3,4.92-5.26A7.29,7.29,0,0,0,316.18,171.34Z" style="opacity:0.2"></path><path d="M325.55,159.3c-1.92,8.16-2.56,11.65-7.44,15.18-7.36,5.29-17,1.16-17.53-7.41-.5-7.71,2.71-19.77,11.35-21.67A11.44,11.44,0,0,1,325.55,159.3Z" style="fill:#b55b52"></path><path d="M319.5,156.05c-.65,4,4.6,8.68,4.6,8.68s6.73-5,2.5-7.62S319.5,156.05,319.5,156.05Z" style="fill:#263238"></path><path d="M311.48,159.24c-.12.67-.57,1.16-1,1.08s-.7-.68-.58-1.35.56-1.16,1-1.08S311.59,158.57,311.48,159.24Z" style="fill:#263238"></path><path d="M303.88,158c-.11.67-.56,1.15-1,1.08s-.7-.68-.59-1.36.57-1.15,1-1.08S304,157.27,303.88,158Z" style="fill:#263238"></path><path d="M303.48,156.66l-1.53-.74S302.56,157.32,303.48,156.66Z" style="fill:#263238"></path><path d="M306.56,159.55s-6.91.6-9.88,4.74a53,53,0,0,1,9.07,0Z" style="fill:#a02724"></path><path d="M326.49,167.24a6.16,6.16,0,0,1-3.72,2.84c-2.09.53-3.08-1.34-2.46-3.28.55-1.75,10.59-8,10.59-8S327.47,165.52,326.49,167.24Z" style="fill:#b55b52"></path><path d="M314.79,158.22a.42.42,0,0,1-.38-.29c-.54-1.77-2.8-2.52-2.83-2.53a.4.4,0,0,1,.25-.76c.11,0,2.68.9,3.35,3.06a.41.41,0,0,1-.27.5Z" style="fill:#263238"></path><path d="M302.2,154.05a.39.39,0,0,1-.34-.2.41.41,0,0,1,.15-.55,3.94,3.94,0,0,1,3.64-.24.4.4,0,0,1,.18.54.41.41,0,0,1-.54.17h0a3.19,3.19,0,0,0-2.88.23A.54.54,0,0,1,302.2,154.05Z" style="fill:#263238"></path><path d="M311.08,158l-1.54-.74S310.15,158.62,311.08,158Z" style="fill:#263238"></path><path d="M305.42,167.25a26.33,26.33,0,0,1,2.4,2.95,6.63,6.63,0,0,0,.6-.29c2.73-1.35,3.55-2.87,3.63-4.15a4,4,0,0,0-.36-1.82,3.8,3.8,0,0,0-.55-.91c-1,1.57-3.46,3-4.8,3.75C305.78,167.08,305.42,167.25,305.42,167.25Z" style="fill:#263238"></path><path d="M306.34,166.78l.73.85c2.56-1.28,4.2-2.52,4.62-3.69a3.8,3.8,0,0,0-.55-.91C310.12,164.6,307.68,166.06,306.34,166.78Z" style="fill:#fff"></path><path d="M308.42,169.91c2.73-1.35,3.55-2.87,3.63-4.15a9.66,9.66,0,0,0-2.73,2.09A3.65,3.65,0,0,0,308.42,169.91Z" style="fill:#a02724"></path><path d="M305.9,146.87c-2.75,3.82,24,18,21.42,9S313.07,136.89,305.9,146.87Z" style="fill:#263238"></path><path d="M305.7,145.8l-27.21,1.71,25.6,2.67,4.92-2.67-.85,3.41,9.89,4.2,2.08-4.33,3,6.05,31.55,14-20.57-15.25S321.64,146.76,305.7,145.8Z" style="fill:#4085FF"></path><path d="M304.09,145.9s7.13-9.67,9.11-11.65,29.27-6.92,30.86-6.52,4.84,18.17,4.84,18.17-4.55-10.56-5.63-11-8.41,6.23-8.41,7.31-1.54,13.66-1.54,13.66S319.3,147.85,304.09,145.9Z" style="fill:#4085FF"></path><path d="M303.48,145.94l1.94-2.59s8-.68,14.71,1.29,14,8.75,14,8.75l-.71,3S322.25,145.55,303.48,145.94Z" style="fill:#263238"></path><path d="M315.61,147.91h-.11l-5.93-1.26a.49.49,0,0,1-.35-.7l1.64-3.43a.5.5,0,0,1,.51-.28l6,.79a.53.53,0,0,1,.37.25.55.55,0,0,1,0,.45l-1.72,3.89A.5.5,0,0,1,315.61,147.91Zm-5.21-2.11,4.91,1,1.28-2.9-5-.66Z" style="fill:#fff"></path><path d="M315.43,145.54h-.05l-1.49-.21a.37.37,0,0,1-.32-.42.37.37,0,0,1,.42-.32l1.5.21a.37.37,0,0,1-.06.74Z" style="fill:#fff"></path><path d="M302.72,192.43l-4.19-12.32h6l2,3v-3.7h17.89v2.91l2-2.91,4.41.42-3.41,9.08S312.71,197.56,302.72,192.43Z" style="fill:#4085FF"></path><path d="M362.56,209.3l-.64.4H341.47l-6.62-5.86-2.41-2.12-.15-.14,5-15.6c2.67.68,10.53,8.19,16.77,14.51C358.77,205.23,362.56,209.3,362.56,209.3Z" style="fill:#4085FF"></path><circle cx="340.5" cy="198.66" r="7.47" style="opacity:0.4"></circle><path d="M340.5,200.7h0a2.17,2.17,0,0,1-2.17-2.17v-2.59a2.17,2.17,0,0,1,2.17-2.17h0a2.17,2.17,0,0,1,2.18,2.17v2.59A2.17,2.17,0,0,1,340.5,200.7Z" style="fill:#fff"></path><path d="M340.5,202.53a4.18,4.18,0,0,1-4.17-4.18v-.79a.51.51,0,0,1,.5-.5.5.5,0,0,1,.5.5v.79a3.17,3.17,0,0,0,6.34,0v-.79a.51.51,0,0,1,1,0v.79A4.19,4.19,0,0,1,340.5,202.53Z" style="fill:#fff"></path><path d="M340.5,204.05a.51.51,0,0,1-.5-.51V202a.51.51,0,0,1,.5-.5.5.5,0,0,1,.5.5v1.52A.5.5,0,0,1,340.5,204.05Z" style="fill:#fff"></path><circle cx="359.42" cy="198.66" r="7.47" style="opacity:0.4"></circle><rect x="354.66" y="195.41" width="7.18" height="6.49" rx="0.77" style="fill:#fff"></rect><polygon points="364.18 200.85 361.84 199.54 361.84 197.77 364.18 196.46 364.18 200.85" style="fill:#fff"></polygon></g><g id="freepik--character-1--inject-155"><polygon points="145.33 255.61 149.72 255.61 161.93 327.27 157.54 327.27 145.33 255.61" style="fill:#4085FF"></polygon><polygon points="161.61 255.61 166 255.61 178.21 327.27 173.82 327.27 161.61 255.61" style="fill:#4085FF"></polygon><polygon points="177.89 255.61 182.28 255.61 194.49 327.27 190.1 327.27 177.89 255.61" style="fill:#4085FF"></polygon><polygon points="145.33 255.61 149.72 255.61 161.93 327.27 157.54 327.27 145.33 255.61" style="fill:#fff;isolation:isolate;opacity:0.6000000000000001"></polygon><polygon points="161.61 255.61 166 255.61 178.21 327.27 173.82 327.27 161.61 255.61" style="fill:#fff;isolation:isolate;opacity:0.6000000000000001"></polygon><polygon points="177.89 255.61 182.28 255.61 194.49 327.27 190.1 327.27 177.89 255.61" style="fill:#fff;isolation:isolate;opacity:0.6000000000000001"></polygon><polygon points="182.81 329.12 183.18 344.97 184.84 416.63 190.35 416.63 192.01 344.97 192.37 329.12 182.81 329.12" style="fill:#4085FF"></polygon><polygon points="182.81 329.12 183.18 344.97 184.84 416.63 190.35 416.63 192.01 344.97 192.37 329.12 182.81 329.12" style="fill:#fff;isolation:isolate;opacity:0.6000000000000001"></polygon><polygon points="182.81 329.12 183.18 345.4 192.01 345.4 192.37 329.12 182.81 329.12" style="isolation:isolate;opacity:0.2"></polygon><polygon points="152.92 416.38 158 330.24 166.31 330.24 159.19 416.38 152.92 416.38" style="fill:#4085FF"></polygon><polygon points="159.21 416.38 152.93 416.38 157.54 337.98 158 330.14 166.31 330.14 165.67 337.98 159.21 416.38" style="fill:#fff;isolation:isolate;opacity:0.6000000000000001"></polygon><polygon points="166.31 330.14 165.67 338.28 157.54 338.28 158 330.14 166.31 330.14" style="isolation:isolate;opacity:0.2"></polygon><polygon points="215.99 416.38 208.87 330.24 217.19 330.24 222.27 416.38 215.99 416.38" style="fill:#4085FF"></polygon><polygon points="215.98 416.38 209.52 337.98 208.88 330.14 217.19 330.14 217.65 337.98 222.26 416.38 215.98 416.38" style="fill:#fff;isolation:isolate;opacity:0.6000000000000001"></polygon><polygon points="208.88 330.14 209.52 338.28 217.65 338.28 217.19 330.14 208.88 330.14" style="isolation:isolate;opacity:0.2"></polygon><path d="M153.55,321.32h68.09a0,0,0,0,1,0,0v6.89a5,5,0,0,1-5,5H158.55a5,5,0,0,1-5-5v-6.89A0,0,0,0,1,153.55,321.32Z" transform="translate(375.19 654.54) rotate(180)" style="fill:#4085FF"></path><path d="M153.55,321.32h68.09a0,0,0,0,1,0,0v6.89a5,5,0,0,1-5,5H158.55a5,5,0,0,1-5-5v-6.89A0,0,0,0,1,153.55,321.32Z" transform="translate(375.19 654.54) rotate(180)" style="isolation:isolate;opacity:0.4"></path><rect x="150.28" y="327.27" width="74.62" height="5.95" rx="2.01" transform="translate(375.19 660.49) rotate(180)" style="fill:#4085FF"></rect><rect x="150.28" y="327.27" width="74.62" height="5.95" rx="2.01" transform="translate(375.19 660.49) rotate(180)" style="fill:#fff;isolation:isolate;opacity:0.7000000000000001"></rect><path d="M139.45,248.51l3.2,18.32a4.09,4.09,0,0,0,4,3.38h39.1a2.61,2.61,0,0,0,2.58-3l-3-18.3a4.08,4.08,0,0,0-4-3.43H142A2.62,2.62,0,0,0,139.45,248.51Z" style="fill:#4085FF"></path><g id="freepik--group--inject-155"><polygon points="237.14 215.38 240.04 218.37 236.07 228.05 236.57 234.63 232.9 235.65 231.79 228.89 230.23 224.99 237.14 215.38" style="fill:#e4897b"></polygon><path d="M203.08,246.35s1.09.76,2.87,1.88c3.9,2.47,11.12,6.72,17.4,8.71,4.19,1.31,8,1.61,10-.3,5.4-5,4.48-18.19,4-22.83-.13-1-.22-1.64-.22-1.64h-4.63L230.83,234l-7.63,8.1S211.46,222.19,203.72,220Z" style="fill:#263238"></path><path d="M230.83,234l6.53-.14c-.13-1-.22-1.64-.22-1.64h-4.63Z" style="isolation:isolate;opacity:0.4"></path><path d="M206,248.23c3.9,2.47,11.12,6.72,17.4,8.71.39-13-15.36-23-15.36-23Z" style="isolation:isolate;opacity:0.2"></path><path d="M288.56,407.55h-9.69a.7.7,0,0,0-.68.55l-1.57,7.1a1.17,1.17,0,0,0,.91,1.39,1.07,1.07,0,0,0,.25,0c3.14-.05,5.42-.24,9.36-.24,2.42,0,9.74.25,13.09.25s3.78-3.31,2.41-3.61c-6.15-1.34-10.77-3.2-12.74-5A1.92,1.92,0,0,0,288.56,407.55Z" style="fill:#4085FF"></path><path d="M263.45,407.29h-9.69a.71.71,0,0,0-.68.55l-1.57,7.1a1.17,1.17,0,0,0,.9,1.4,1.15,1.15,0,0,0,.26,0c3.14-.06,5.42-.25,9.36-.25,2.42,0,9.74.26,13.09.26s3.78-3.31,2.41-3.62c-6.15-1.34-10.78-3.19-12.74-5A2,2,0,0,0,263.45,407.29Z" style="fill:#4085FF"></path><path d="M294.36,408.18l-18.89-.08L262,327.27s-35.86,5.51-64.72-1.73a51.93,51.93,0,0,1-11.55-4.21c-24.92-13.25-25.7-42.47-25.7-42.47l56.93-.52,4.41,8.05s47.08,8.77,61.42,17.74c5,3.11,7.89,16.56,9.58,32.81C295.53,367.58,294.36,408.18,294.36,408.18Z" style="fill:#263238"></path><path d="M275.89,309.79a2.07,2.07,0,0,1,1.89-3.68,2.07,2.07,0,1,1-1.89,3.68Z" style="fill:#fff"></path><path d="M278.89,308.49a2.07,2.07,0,1,1,2.78-.89A2.07,2.07,0,0,1,278.89,308.49Z" style="fill:#fff"></path><path d="M221.31,293.74a2.07,2.07,0,1,1,2.27-1.85A2.07,2.07,0,0,1,221.31,293.74Z" style="fill:#fff"></path><path d="M223.63,291.43a2.07,2.07,0,1,1,2.27-1.85A2.07,2.07,0,0,1,223.63,291.43Z" style="fill:#fff"></path><path d="M277.88,308.42a1.94,1.94,0,0,1-.84-.19c-16.07-7.43-53.5-15.82-53.88-15.9a2,2,0,1,1,.87-3.91c1.55.35,38.23,8.57,54.69,16.18a2,2,0,0,1-.84,3.82Z" style="fill:#fff"></path><path d="M280.94,321.61a2.07,2.07,0,1,1,2.91-.25A2.07,2.07,0,0,1,280.94,321.61Z" style="fill:#fff"></path><path d="M284.15,321a2.07,2.07,0,1,1,2.92-.24A2.06,2.06,0,0,1,284.15,321Z" style="fill:#fff"></path><path d="M286.54,392.5a2.07,2.07,0,1,1,2.93.07A2.06,2.06,0,0,1,286.54,392.5Z" style="fill:#fff"></path><path d="M289.8,392.25a2.07,2.07,0,0,1,3-2.85,2.07,2.07,0,1,1-3,2.85Z" style="fill:#fff"></path><path d="M289.66,392.4a2,2,0,0,1-2-1.93c-.5-15.39-5.72-69.53-5.77-70.08a2,2,0,0,1,4-.38c.06.55,5.29,54.81,5.79,70.33a2,2,0,0,1-1.94,2.06Z" style="fill:#fff"></path><path d="M294.36,408.18l-18.89-.08L262,327.27s-35.86,5.51-64.72-1.73a101.71,101.71,0,0,1,14.05-31.86s56.93,4.26,81,43.26C295.53,367.58,294.36,408.18,294.36,408.18Z" style="isolation:isolate;opacity:0.2"></path><path d="M160,278.86s-6.59,33.54,10.88,42.46,46.94,7.8,46.94,7.8l32.38,80.77,17.12-1.79s-11.23-93.56-25.44-104.68c-3.85-3-46.09-12-46.09-12Z" style="fill:#263238"></path><path d="M209.59,237.55H231.3a1.4,1.4,0,0,0,1.29-1l7.66-33.9a.81.81,0,0,0-.82-1H217.72a1.38,1.38,0,0,0-1.29,1l-7.66,33.9A.81.81,0,0,0,209.59,237.55Z" style="fill:#4085FF"></path><path d="M209.59,237.55H231.3a1.4,1.4,0,0,0,1.29-1l7.66-33.9a.81.81,0,0,0-.82-1H217.72a1.38,1.38,0,0,0-1.29,1l-7.66,33.9A.81.81,0,0,0,209.59,237.55Z" style="fill:#fff;isolation:isolate;opacity:0.4"></path><path d="M226.51,215.63c1.34,0,2.11,1.37,1.73,3.06s-1.78,3.06-3.11,3.06-2.12-1.37-1.73-3.06C224.73,218.69,226.13,217.32,226.51,215.63Z" style="fill:#263238"></path><path d="M235,207.06h2.31a.53.53,0,0,0,.49-.4l.63-2.78a.31.31,0,0,0-.31-.4h-2.31a.53.53,0,0,0-.49.4l-.63,2.78A.31.31,0,0,0,235,207.06Z" style="isolation:isolate;opacity:0.2"></path><path d="M237,204.53c-.07.28.08.51.32.51a.64.64,0,0,0,.55-.51c.06-.28-.08-.51-.32-.51A.63.63,0,0,0,237,204.53Z" style="fill:#263238"></path><path d="M235.66,204.53c-.07.28.08.51.32.51a.64.64,0,0,0,.55-.51c.06-.28-.08-.51-.32-.51A.63.63,0,0,0,235.66,204.53Z" style="fill:#263238"></path><path d="M236.61,206c-.06.29.08.51.32.51a.62.62,0,0,0,.55-.51c.06-.28-.08-.51-.32-.51A.64.64,0,0,0,236.61,206Z" style="fill:#263238"></path><path d="M235.32,206c-.06.29.08.51.32.51a.62.62,0,0,0,.55-.51c.06-.28-.08-.51-.32-.51A.64.64,0,0,0,235.32,206Z" style="fill:#263238"></path><path d="M216.43,202.61l-7.66,33.9a.82.82,0,0,0,.82,1.05h.9a.81.81,0,0,1-.81-1.05l7.66-33.9a1.38,1.38,0,0,1,1.29-1h-.91A1.38,1.38,0,0,0,216.43,202.61Z" style="isolation:isolate;opacity:0.2"></path><path d="M237.14,215.38l-2.69-.59-3.11,8.66,3.92,4.6S239.69,219.2,237.14,215.38Z" style="fill:#e4897b"></path><path d="M159.05,239c0,1.3,0,2.63,0,4,0,3.93.08,8,.15,11.92,0,2.42.1,4.75.16,6.93.08,2.8.17,5.36.29,7.5.08,1.81.19,3.32.31,4.43h56.21s0-12.31-5.27-31.93c0,0,0,0,0,0A207.45,207.45,0,0,0,203.72,220a45.24,45.24,0,0,0-20.31-5.36c-17.25,0-24.43,6.49-24.43,6.49S159,229.12,159.05,239Z" style="fill:#263238"></path><path d="M181.75,214.6c9.08.1,12.54,1.73,13.11,3.53s-2.6,5.74-8.73,6.34-15.21-3.59-16.65-6.22S176.43,214.54,181.75,214.6Z" style="isolation:isolate;opacity:0.4"></path><path d="M194,271.84a1.5,1.5,0,0,1-1.5-1.5c0-31.26-6.12-41.39-6.18-41.49a1.5,1.5,0,0,1,2.53-1.61c.27.43,6.62,10.73,6.65,43.1a1.5,1.5,0,0,1-1.5,1.5Z" style="fill:#fff"></path><path d="M173.42,252.15a8,8,0,0,1-2.67-.44,1,1,0,1,1,.68-1.88c5.83,2.09,15.41-6.3,15.5-6.38a1,1,0,1,1,1.33,1.49C187.88,245.28,180,252.15,173.42,252.15Z" style="fill:#fff"></path><path d="M171.18,245a10,10,0,0,1-2.91-.39,1,1,0,1,1,.58-1.91c5.83,1.78,17.16-4.53,17.27-4.59a1,1,0,0,1,1.37.38,1,1,0,0,1-.39,1.36C186.68,240.09,177.85,245,171.18,245Z" style="fill:#fff"></path><path d="M171.38,238.06a12.48,12.48,0,0,1-4.69-.69,1,1,0,1,1,.79-1.84C171,237,181.75,235,185.61,234a1,1,0,1,1,.46,1.94C185,236.24,177.16,238.06,171.38,238.06Z" style="fill:#fff"></path><path d="M175.91,232.22c-4,0-8.14-.27-9.45-1.32a1,1,0,1,1,1.25-1.56c1.26,1,9.33,1.08,16.4.57a1,1,0,0,1,.14,2C183.05,232,179.53,232.22,175.91,232.22Z" style="fill:#fff"></path><path d="M200.26,231.85a48.43,48.43,0,0,1-7.53-.74,1,1,0,0,1-.81-1.16,1,1,0,0,1,1.16-.81c3.63.64,9.39,1.12,10.81.15A1,1,0,0,1,205,231C204,231.63,202.2,231.85,200.26,231.85Z" style="fill:#fff"></path><path d="M203.66,237.62a42,42,0,0,1-9.93-1.66,1,1,0,0,1,.56-1.92c3.6,1,10.09,2.27,12.18,1.11a1,1,0,1,1,1,1.75A8.1,8.1,0,0,1,203.66,237.62Z" style="fill:#fff"></path><path d="M206.22,243c-4.57,0-11.13-2.7-12-3.09a1,1,0,1,1,.78-1.84c4,1.67,11.06,3.85,13.28,2.57a1,1,0,1,1,1,1.73A6.12,6.12,0,0,1,206.22,243Z" style="fill:#fff"></path><path d="M208.69,250.61c-3.88,0-10.92-3.67-14.25-5.54a1,1,0,0,1,1-1.75c7.11,4,13.23,6,14,5.21a1,1,0,0,1,1.5,1.33A2.8,2.8,0,0,1,208.69,250.61Z" style="fill:#fff"></path><path d="M159.05,239c0,1.3,0,2.63,0,4,0,3.93.08,8,.15,11.92,0,2.42.1,4.75.16,6.93.08,2.8.17,5.36.29,7.5,7.15-6,10.46-17.46,10.46-17.46a65.27,65.27,0,0,0,0-9,19.54,19.54,0,0,0-5.09-10.71A27.14,27.14,0,0,0,159.05,239Z" style="isolation:isolate;opacity:0.2"></path><path d="M163.74,251.91a14.71,14.71,0,0,0,3.17-7.37,21.84,21.84,0,0,0-.38-7.51h0c-1.82-8.5-7.54-15.93-7.54-15.93-5.82,4.27-18.52,17.9-20,31.63S154.06,263.93,163.74,251.91Z" style="fill:#263238"></path><path d="M166.91,244.54a21.84,21.84,0,0,0-.38-7.51h0s-10.21,5.45-14.06,11.26C149,253.45,163.39,247.32,166.91,244.54Z" style="isolation:isolate;opacity:0.2"></path><rect x="180.43" y="232.58" width="1.07" height="8.81" transform="translate(36.78 -24.02) rotate(8.45)" style="fill:#263238"></rect><rect x="180.43" y="232.58" width="1.07" height="8.81" transform="translate(36.78 -24.02) rotate(8.45)" style="fill:#fff;isolation:isolate;opacity:0.6000000000000001"></rect><path d="M186.64,229.93a1.8,1.8,0,0,1-.06.32,2.76,2.76,0,0,1-.16.54,4.54,4.54,0,1,1,.22-.86Z" style="fill:#4085FF"></path><path d="M186.58,230.25a2.76,2.76,0,0,1-.16.54,4.79,4.79,0,0,0-.88-2.75,5,5,0,0,0-1.48-1.43,3.25,3.25,0,0,0-1.86-.65,3.1,3.1,0,0,0-2.68,2.47c-.37,1.23-.26,2.93.87,3.35a3.45,3.45,0,0,0,1.92.06,3.66,3.66,0,0,0,1.77-.74c.9-.84.21-2.53-.9-3.08a1.7,1.7,0,0,0-1.78,0,1.43,1.43,0,0,0-.57,1.65,1.78,1.78,0,0,0,1.53,1.08.59.59,0,0,0,.41-.74,1,1,0,0,0-.66-.77,1.08,1.08,0,0,1,.77.74.73.73,0,0,1-.49,1,2,2,0,0,1-1.91-1.13,1.85,1.85,0,0,1,.63-2.18,2.2,2.2,0,0,1,2.34-.17,3.08,3.08,0,0,1,1.56,1.73,2.25,2.25,0,0,1-.42,2.39,2.84,2.84,0,0,1-1.05.65c-.35.12-.71.23-1.09.32a4,4,0,0,1-2.35-.08,2.44,2.44,0,0,1-1.44-2,4.86,4.86,0,0,1,.19-2.31,4.8,4.8,0,0,1,1.17-2,3.07,3.07,0,0,1,2.19-.87,4,4,0,0,1,2.13.85,5.66,5.66,0,0,1,1.53,1.63A5.07,5.07,0,0,1,186.58,230.25Z" style="fill:#fff;isolation:isolate;opacity:0.6000000000000001"></path><path d="M165.8,245.44l4.79-1.24s5.53-4.29,6.07-4.39,5.9.61,5.9.61v7.69s-8.46,2.95-11.35.77l-5,3.84Z" style="fill:#e4897b"></path><path d="M143.75,261.69c8.6,3.21,21.18-5.71,25.15-8.78.8-.62,1.25-1,1.25-1l-1.65-8.58-1.54.2-14,1.92C147.1,249,133.42,257.84,143.75,261.69Z" style="fill:#263238"></path><path d="M167,243.52l1.94,9.39c.8-.62,1.25-1,1.25-1l-1.65-8.58Z" style="isolation:isolate;opacity:0.4"></path><path d="M170.59,217.44c4,4.09,12.34,5.76,16.47,5.35,2.26-.22,5.64-1.32,5.85-5.51-2.68-2.51-3.32-2.73-3.94-4.62a6,6,0,0,1,.19-3.66,16.3,16.3,0,0,1,.82-2.08l-15.19-7.3C176,204.83,176.73,213.35,170.59,217.44Z" style="fill:#e4897b"></path><path d="M177.68,204.56c-.58,6.49,7.32,7.92,11.29,8.1a6,6,0,0,1,.19-3.66Z" style="isolation:isolate;opacity:0.2"></path><path d="M177.33,181.51a11.38,11.38,0,0,1,16-2,10.72,10.72,0,0,1,3.23,4.11h0c2.29,2.46,2.38,7.72,1,10.76h0c-.11.7-.25,1.39-.4,2.08,0,2,2.08,4.77-1.28,9.72-4.19,6.16-12.07,5.36-16.31,2.66l0,0a10.51,10.51,0,0,1-4.61-4.44,12.5,12.5,0,0,1-.84-1.79c-1.77-4.56-.5-9.06,1-16.28A11.56,11.56,0,0,1,177.33,181.51Z" style="fill:#e4897b"></path><path d="M186.7,191.94c-.22.64,0,1.28.45,1.39s.92-.32,1.1-1,0-1.28-.45-1.39S186.89,191.28,186.7,191.94Z" style="fill:#263238"></path><path d="M194.09,194a1.07,1.07,0,0,0,.45,1.4c.43.11.92-.33,1.1-1s0-1.27-.45-1.39S194.26,193.35,194.09,194Z" style="fill:#263238"></path><path d="M191.65,193.65a24.37,24.37,0,0,0,1.59,6.45,3.93,3.93,0,0,1-3.31-.28Z" style="fill:#de5753"></path><path d="M185,188.57a.38.38,0,0,0,.41,0,3.24,3.24,0,0,1,2.88-.07.39.39,0,0,0,.54-.14.4.4,0,0,0-.14-.54h0a3.92,3.92,0,0,0-3.62,0,.39.39,0,0,0-.19.53h0A.57.57,0,0,0,185,188.57Z" style="fill:#263238"></path><path d="M197.57,192.69a.36.36,0,0,0,.23,0,.4.4,0,0,0,.17-.54h0a4,4,0,0,0-3-2.11.41.41,0,0,0-.43.37h0a.41.41,0,0,0,.37.42h0a3.19,3.19,0,0,1,2.32,1.71A.41.41,0,0,0,197.57,192.69Z" style="fill:#263238"></path><path d="M196.91,183.87c-1.13-1.63-4-.18-4-.18s-5.53-3.09-8.06-3.53-3.36,2.65-3.77,3.18.32,2.1.32,2.1-2.8,7.12-3.59,9.09l-4.85,4.35a34.52,34.52,0,0,1,1-19.07c3.52-10.31,20.08-5,23.43-.1C199.35,182.74,196.91,183.87,196.91,183.87Z" style="fill:#4085FF"></path><path d="M169.07,194.2a7.94,7.94,0,0,0,3.84,4.68c2.46,1.3,4.27-.77,4.08-3.39-.19-2.34-1.67-5.9-4.38-6.08S168.35,191.72,169.07,194.2Z" style="fill:#e4897b"></path><path d="M185.84,179.71s-.45,5.28-6.79,7.21-11.11-9.43.56-12.54Z" style="fill:#263238"></path><path d="M189.79,201.05a26.2,26.2,0,0,0-2.89,2.48c-.18-.13-.37-.26-.54-.4-2.44-1.8-3-3.45-2.83-4.73a4,4,0,0,1,.67-1.72,3.87,3.87,0,0,1,.7-.8c.73,1.73,2.87,3.59,4.06,4.54C189.46,200.82,189.79,201.05,189.79,201.05Z" style="fill:#263238"></path><path d="M189,200.42l-.87.71c-2.29-1.71-3.68-3.22-3.89-4.45a3.87,3.87,0,0,1,.7-.8C185.63,197.61,187.77,199.47,189,200.42Z" style="fill:#fff"></path><path d="M186.36,203.13c-2.44-1.8-3-3.45-2.83-4.73a9.85,9.85,0,0,1,2.31,2.55A3.66,3.66,0,0,1,186.36,203.13Z" style="fill:#de5753"></path><path d="M198.45,187.14c-1.28-2.4-10.45-5.88-17.7-1.33a23.84,23.84,0,0,0-9.53,11.85c-.64,1.6-1.44-.92-2.33-2.78s.43-5.48.43-5.48-.44-9.13,3.39-13.7a7.06,7.06,0,0,1,1.41-1.32c5.34-3.78,19.88-1.36,22.17,2.1a13.35,13.35,0,0,1,2.16,7.11h0a2.35,2.35,0,0,1,.38.21h0a2.17,2.17,0,0,1,.87,1.07C200,185.78,198.45,187.14,198.45,187.14Z" style="fill:#263238"></path><path d="M197.71,179.39l-1.42-.58-.58-1.34v1.34l-1.46-.55-.7-1.14v1.14l-1.13-.21-.83-1.34v1.16l-1.15.16-.84-1.32.33,1.16a12.53,12.53,0,0,1-2.16.16c-.45-.09-.59-2.24-1-2.54s-2.32,0-3.37.6c-1.5.29-4,1.28-7.11,1-1.79-.15-3.09-.56-3.59-1.42a7.06,7.06,0,0,1,1.41-1.32,11.11,11.11,0,0,1,4.71-1.66.41.41,0,0,0-.21.35c0,.69,3.86-.15,4.65-.52a.21.21,0,0,0,.1-.07,34.18,34.18,0,0,1,6,.75v1.15a11.25,11.25,0,0,0,2.46-.22c.18-.17,1.22.42,1.57.62a9.63,9.63,0,0,0-1.11-.73,8.09,8.09,0,0,1,4,2.43A12.54,12.54,0,0,1,197.71,179.39Z" style="fill:#fff;opacity:0.8"></path><path d="M198.45,183.59c-2.27-1.89-11.77-1.77-11.84-2.83a9.21,9.21,0,0,0-1.4-3.38,14.62,14.62,0,0,0,1.4-1,8,8,0,0,0,1.26,3.26l-.1-1,2.47.05.69,1.29-.24-1.24,1.18.05.79,1.48v-1.28l1.14.14.77,1.29v-1.29l1.36.35.74,1.36-.1-1.31,1.28.37A12.53,12.53,0,0,1,198.45,183.59Z" style="fill:#fff;opacity:0.8"></path><path d="M198.85,183.81a1,1,0,0,1-.38-.21A2.35,2.35,0,0,1,198.85,183.81Z" style="fill:#fff;opacity:0.8"></path><path d="M143.76,249.61a1.36,1.36,0,0,1-.56-.11,1.5,1.5,0,0,1-.83-1.95c3.75-9.28,12.85-19.24,13.24-19.66a1.5,1.5,0,1,1,2.21,2c-.09.1-9.13,10-12.67,18.75A1.5,1.5,0,0,1,143.76,249.61Z" style="fill:#fff"></path><path d="M143.57,257.1a1.5,1.5,0,0,1-.33-3c.14,0,14.44-3.31,20.48-6.28a1.5,1.5,0,1,1,1.33,2.69c-6.36,3.13-20.54,6.38-21.14,6.52A1.37,1.37,0,0,1,143.57,257.1Z" style="fill:#fff"></path><circle cx="159.11" cy="228.57" r="1.55" style="fill:#fff"></circle><path d="M158.76,227a1.55,1.55,0,1,1-1.55-1.55A1.55,1.55,0,0,1,158.76,227Z" style="fill:#fff"></path><path d="M145.76,249.75a1.56,1.56,0,1,1-1.91-1.09A1.56,1.56,0,0,1,145.76,249.75Z" style="fill:#fff"></path><path d="M143.52,248.75a1.57,1.57,0,0,1-1.09,1.91,1.56,1.56,0,1,1,1.09-1.91Z" style="fill:#fff"></path><path d="M144.69,258a1.55,1.55,0,1,1-.41-2.16A1.56,1.56,0,0,1,144.69,258Z" style="fill:#fff"></path><path d="M144,255.66a1.55,1.55,0,1,1-.41-2.16A1.56,1.56,0,0,1,144,255.66Z" style="fill:#fff"></path><path d="M167.09,251a1.55,1.55,0,1,1-.41-2.16A1.56,1.56,0,0,1,167.09,251Z" style="fill:#fff"></path><path d="M166.39,248.69a1.55,1.55,0,1,1-.41-2.16A1.56,1.56,0,0,1,166.39,248.69Z" style="fill:#fff"></path><polygon points="160 273.79 216.21 273.79 216.93 278.34 159.62 281.17 160 273.79"></polygon><path d="M230.79,308.42a2,2,0,0,1-.86-.19c-10-4.76-42.37-10.74-42.7-10.8a2,2,0,1,1,.72-3.93c1.35.24,33.21,6.13,43.7,11.11a2,2,0,0,1-.86,3.81Z" style="fill:#fff"></path><path d="M257.39,390.82a2,2,0,0,1-2-1.71c-3.7-25.46-16-66.38-16.16-66.79a2,2,0,1,1,3.83-1.16c.12.41,12.55,41.61,16.29,67.38a2,2,0,0,1-1.7,2.26A1.37,1.37,0,0,1,257.39,390.82Z" style="fill:#fff"></path><path d="M229.13,309.56a2.07,2.07,0,1,1,2.79-.89A2.08,2.08,0,0,1,229.13,309.56Z" style="fill:#fff"></path><path d="M232.13,308.26a2.07,2.07,0,1,1,2.79-.89A2.06,2.06,0,0,1,232.13,308.26Z" style="fill:#fff"></path><circle cx="239.25" cy="321.8" r="2.07" style="fill:#fff"></circle><path d="M241.3,322.34a2.07,2.07,0,1,1,2.79-.9A2.08,2.08,0,0,1,241.3,322.34Z" style="fill:#fff"></path><path d="M254.43,392.51a2.07,2.07,0,1,1,2.91-.2A2.06,2.06,0,0,1,254.43,392.51Z" style="fill:#fff"></path><path d="M257.65,392a2.07,2.07,0,1,1,2.92-.2A2.07,2.07,0,0,1,257.65,392Z" style="fill:#fff"></path><path d="M184.82,298.67a2.07,2.07,0,1,1,2.27-1.85A2.06,2.06,0,0,1,184.82,298.67Z" style="fill:#fff"></path><path d="M187.14,296.37a2.07,2.07,0,1,1,2.26-1.85A2.07,2.07,0,0,1,187.14,296.37Z" style="fill:#fff"></path></g></g><g id="freepik--Table--inject-155"><path d="M98.17,273.62s14.73-2.79,29.21.18c0,0-3.12,6.13-12.47,6.23S98.3,275.91,98.17,273.62Z" style="fill:#263238"></path><rect x="112.39" y="269.23" width="0.93" height="7.6" style="fill:#263238"></rect><rect x="112.39" y="269.23" width="0.93" height="7.6" style="fill:#fff;isolation:isolate;opacity:0.6000000000000001"></rect><path d="M116.8,266.29a2.62,2.62,0,0,1,0,.28,3.94,3.94,0,1,1,0-.28Z" style="fill:#4085FF"></path><path d="M116.79,266.57a4,4,0,0,1-.07.48,4.21,4.21,0,0,0-1.1-2.23,4.37,4.37,0,0,0-1.44-1,2.91,2.91,0,0,0-1.68-.33,2.7,2.7,0,0,0-2,2.45c-.16,1.1.15,2.54,1.17,2.75a3,3,0,0,0,1.65-.19,3.24,3.24,0,0,0,1.42-.85c.65-.83-.15-2.19-1.17-2.52a1.47,1.47,0,0,0-1.51.24,1.25,1.25,0,0,0-.28,1.49,1.55,1.55,0,0,0,1.44.72.51.51,0,0,0,.26-.68.9.9,0,0,0-.66-.58.94.94,0,0,1,.75.54.63.63,0,0,1-.29.88,1.74,1.74,0,0,1-1.78-.72,1.62,1.62,0,0,1,.26-1.95,1.94,1.94,0,0,1,2-.44,2.65,2.65,0,0,1,1.55,1.29,1.93,1.93,0,0,1,0,2.09,2.43,2.43,0,0,1-.82.68,7.89,7.89,0,0,1-.88.41,3.33,3.33,0,0,1-2,.23,2.06,2.06,0,0,1-1.47-1.48,4.13,4.13,0,0,1-.14-2,4.27,4.27,0,0,1,.75-1.85,2.61,2.61,0,0,1,1.76-1,3.4,3.4,0,0,1,1.92.45,5.05,5.05,0,0,1,1.52,1.19A4.5,4.5,0,0,1,116.79,266.57Z" style="fill:#fff;isolation:isolate;opacity:0.6000000000000001"></path><rect x="122.75" y="272.4" width="0.93" height="7.6" transform="translate(-111.38 85.33) rotate(-26.82)" style="fill:#263238"></rect><rect x="122.75" y="272.4" width="0.93" height="7.6" transform="translate(-111.38 85.33) rotate(-26.82)" style="fill:#fff;isolation:isolate;opacity:0.6000000000000001"></rect><path d="M123.7,268.41a2,2,0,0,1,.11.26,2.51,2.51,0,0,1,.16.46,3.89,3.89,0,1,1-.27-.72Z" style="fill:#4085FF"></path><path d="M123.81,268.67a2.51,2.51,0,0,1,.16.46,4.15,4.15,0,0,0-2-1.5,4.49,4.49,0,0,0-1.75-.27,2.9,2.9,0,0,0-1.64.47,2.66,2.66,0,0,0-.65,3.07c.35,1.06,1.27,2.19,2.28,1.93a3.12,3.12,0,0,0,1.38-.91,3.23,3.23,0,0,0,.88-1.41c.21-1-1.12-1.88-2.17-1.72a1.48,1.48,0,0,0-1.25.9,1.26,1.26,0,0,0,.42,1.45,1.55,1.55,0,0,0,1.62,0,.5.5,0,0,0-.08-.72.9.9,0,0,0-.85-.22,1,1,0,0,1,.92.14.63.63,0,0,1,.13.92,1.73,1.73,0,0,1-1.91.16,1.6,1.6,0,0,1-.64-1.85,1.9,1.9,0,0,1,1.56-1.28,2.62,2.62,0,0,1,2,.44,2,2,0,0,1,.9,1.89,2.7,2.7,0,0,1-.42,1c-.19.26-.39.52-.61.77a3.34,3.34,0,0,1-1.7,1.11,2.08,2.08,0,0,1-2-.66,4.48,4.48,0,0,1-1.19-3.71,2.65,2.65,0,0,1,1.11-1.7,3.41,3.41,0,0,1,1.93-.46,4.86,4.86,0,0,1,1.88.38A4.33,4.33,0,0,1,123.81,268.67Z" style="fill:#fff;isolation:isolate;opacity:0.6000000000000001"></path><rect x="99.43" y="271.86" width="0.93" height="7.6" transform="translate(157.33 563.18) rotate(-171.38)" style="fill:#263238"></rect><rect x="99.43" y="271.86" width="0.93" height="7.6" transform="translate(157.33 563.18) rotate(-171.38)" style="fill:#fff;isolation:isolate;opacity:0.6000000000000001"></rect><path d="M97,268.41a2.4,2.4,0,0,0,0,.28,2.57,2.57,0,0,0,0,.48,3.89,3.89,0,1,0,0-.76Z" style="fill:#4085FF"></path><path d="M97,268.69a2.57,2.57,0,0,0,0,.48,4.36,4.36,0,0,1,3-2.84,2.87,2.87,0,0,1,1.71-.07,2.67,2.67,0,0,1,1.57,2.72c0,1.11-.52,2.48-1.56,2.54a3,3,0,0,1-1.6-.44A3.08,3.08,0,0,1,98.82,270c-.53-.92.47-2.13,1.53-2.31a1.5,1.5,0,0,1,1.46.46,1.26,1.26,0,0,1,0,1.52,1.55,1.55,0,0,1-1.54.49.5.5,0,0,1-.15-.71.91.91,0,0,1,.74-.47.94.94,0,0,0-.82.42.62.62,0,0,0,.15.91,1.74,1.74,0,0,0,1.87-.44,1.59,1.59,0,0,0,0-2,1.93,1.93,0,0,0-1.88-.74,2.7,2.7,0,0,0-1.73,1,2,2,0,0,0-.26,2.08,2.46,2.46,0,0,0,.71.79,8.19,8.19,0,0,0,.81.55,3.37,3.37,0,0,0,2,.52,2.08,2.08,0,0,0,1.68-1.24,4.21,4.21,0,0,0,.43-2,4.16,4.16,0,0,0-.46-1.94,2.59,2.59,0,0,0-1.58-1.26,3.32,3.32,0,0,0-2,.16,4.71,4.71,0,0,0-1.67.95A4.46,4.46,0,0,0,97,268.69Z" style="fill:#fff;isolation:isolate;opacity:0.6000000000000001"></path><polygon points="126.61 272.17 124.88 277.15 124.41 276.79 126.04 271.92 126.61 272.17" style="fill:#263238"></polygon><polygon points="126.61 272.17 124.88 277.15 124.41 276.79 126.04 271.92 126.61 272.17" style="fill:#fff;isolation:isolate;opacity:0.6000000000000001"></polygon><path d="M128.75,271.91a1.76,1.76,0,0,1-.24.3,2.26,2.26,0,0,1-2.89.35,2.54,2.54,0,0,1-.36-.29,2.23,2.23,0,0,1-.52-.86h0a.35.35,0,0,1,0-.12,1.74,1.74,0,0,1-.09-.72,2.13,2.13,0,0,1,.36-1.14,2.26,2.26,0,0,1,3.1-.67l0,0a2.38,2.38,0,0,1,.34.27,2.26,2.26,0,0,1,.5.73,2.67,2.67,0,0,1,.15.48,2.27,2.27,0,0,1-.14,1.28A2.81,2.81,0,0,1,128.75,271.91Z" style="fill:#4085FF"></path><path d="M126.17,269.5c.41-.12,1.18-.44,1.9-.75l0,0a2.38,2.38,0,0,1,.34.27C127.36,269.32,125.38,269.73,126.17,269.5Z" style="fill:#fff;isolation:isolate;opacity:0.6000000000000001"></path><path d="M126.79,272a4.93,4.93,0,0,1-1.53.32,2.23,2.23,0,0,1-.52-.86c.18.11.68.2.88.32C126,272,127.67,271.55,126.79,272Z" style="fill:#fff;isolation:isolate;opacity:0.6000000000000001"></path><path d="M124.7,271.28a1.74,1.74,0,0,1-.09-.72,11.25,11.25,0,0,0,4.33-.79,2.67,2.67,0,0,1,.15.48c-.69.22-1.93.47-3.46.76A2.21,2.21,0,0,0,124.7,271.28Z" style="fill:#fff;isolation:isolate;opacity:0.6000000000000001"></path><path d="M128.75,271.91a1.76,1.76,0,0,1-.24.3,3.23,3.23,0,0,1-.72.14c-1.22.11-.06-.28.77-.57a1.36,1.36,0,0,0,.39-.25A2.81,2.81,0,0,1,128.75,271.91Z" style="fill:#fff;isolation:isolate;opacity:0.6000000000000001"></path><path d="M112.81,276.94c-.43-.35.25-2.86,1.9-3.46l-.9-1.15,2.56-.4-.45,1.47a2.58,2.58,0,0,1,2.31,1.93C118.58,276,115.26,278.88,112.81,276.94Z" style="fill:#4085FF"></path><path d="M116.37,271.93l-.45,1.47a1.09,1.09,0,0,1-1.21.08l-.9-1.15Z" style="fill:#fff;isolation:isolate;opacity:0.6000000000000001"></path><path d="M104.56,273.92s1.62,1.86.39,3.1-5.06-1.26-5.06-1.26.71-2,3.88-2.55v-3l3.17,2.14Z" style="fill:#4085FF"></path><path d="M106.94,272.35l-2.38,1.57a.86.86,0,0,1-.79-.71v-3Z" style="fill:#fff;isolation:isolate;opacity:0.6000000000000001"></path><polygon points="108.34 273.46 108.53 278.74 107.95 278.57 107.72 273.43 108.34 273.46" style="fill:#263238"></polygon><polygon points="108.34 273.46 108.53 278.74 107.95 278.57 107.72 273.43 108.34 273.46" style="fill:#fff;isolation:isolate;opacity:0.6000000000000001"></polygon><path d="M110.25,272.45a2,2,0,0,1-.12.37,2.26,2.26,0,0,1-2.57,1.36,2.83,2.83,0,0,1-.44-.13,2.11,2.11,0,0,1-.79-.63h0a.29.29,0,0,1-.07-.1,1.83,1.83,0,0,1-.34-.63,2.2,2.2,0,0,1-.08-1.2,2.27,2.27,0,0,1,2.65-1.74h0a1.64,1.64,0,0,1,.41.13,2.07,2.07,0,0,1,.73.5,1.9,1.9,0,0,1,.31.39,2.23,2.23,0,0,1,.34,1.24A2.18,2.18,0,0,1,110.25,272.45Z" style="fill:#4085FF"></path><path d="M107,271.14c.34-.27,1-.84,1.5-1.39h0a1.64,1.64,0,0,1,.41.13C108,270.54,106.32,271.63,107,271.14Z" style="fill:#fff;isolation:isolate;opacity:0.6000000000000001"></path><path d="M108.43,273.19a5.22,5.22,0,0,1-1.31.86,2.11,2.11,0,0,1-.79-.63c.21.05.71-.05.93,0C107.68,273.48,109.11,272.5,108.43,273.19Z" style="fill:#fff;isolation:isolate;opacity:0.6000000000000001"></path><path d="M106.24,273.32a1.83,1.83,0,0,1-.34-.63,11.49,11.49,0,0,0,3.75-2.3,1.9,1.9,0,0,1,.31.39,34.34,34.34,0,0,1-2.95,2C106.47,273.06,106.27,273.23,106.24,273.32Z" style="fill:#fff;isolation:isolate;opacity:0.6000000000000001"></path><path d="M110.25,272.45a2,2,0,0,1-.12.37,3.15,3.15,0,0,1-.62.38c-1.1.55-.15-.23.52-.8a1.36,1.36,0,0,0,.27-.38A2.18,2.18,0,0,1,110.25,272.45Z" style="fill:#fff;isolation:isolate;opacity:0.6000000000000001"></path><path d="M134.25,286.29c0,9.18-9.17,16.67-20.67,17l-.93,0-.93,0c-11.5-.38-20.67-7.87-20.67-17,0-5,2.75-9.54,7.12-12.67,0,0,.67.22,1.79.53l.54.14c1.29.34,3,.75,5,1.09l.76.12a42.24,42.24,0,0,0,6.39.54,52.7,52.7,0,0,0,6.44-.41l.78-.1a43.57,43.57,0,0,0,5.18-1l.56-.14a11.5,11.5,0,0,0,1.77-.61C131.61,276.92,134.25,281.36,134.25,286.29Z" style="fill:#4085FF"></path><path d="M134.25,286.29c0,9.18-9.17,16.67-20.67,17l-.93,0-.93,0c-11.5-.38-20.67-7.87-20.67-17,0-5,2.75-9.54,7.12-12.67,0,0,.67.22,1.79.53l.54.14c1.29.34,3,.75,5,1.09l.76.12a42.24,42.24,0,0,0,6.39.54,52.7,52.7,0,0,0,6.44-.41l.78-.1a43.57,43.57,0,0,0,5.18-1l.56-.14a11.5,11.5,0,0,0,1.77-.61C131.61,276.92,134.25,281.36,134.25,286.29Z" style="fill:#fff;isolation:isolate;opacity:0.2"></path><path d="M111.72,303.34c-9.53-.46-17.14-7.93-17.14-17A16.55,16.55,0,0,1,100,274.15l.54.14a17.08,17.08,0,0,0,11.22,29Z" style="isolation:isolate;opacity:0.2"></path><path d="M130.72,286.29c0,9.12-7.6,16.59-17.14,17a17.08,17.08,0,0,0,11.47-28.79l.56-.14A16.48,16.48,0,0,1,130.72,286.29Z" style="isolation:isolate;opacity:0.2"></path><path d="M112.23,303.34c-5-.39-8.82-7.74-8.82-17a27,27,0,0,1,2.09-10.91l.76.12a30,30,0,0,0-1.85,10.79C104.41,295.43,107.87,302.88,112.23,303.34Z" style="isolation:isolate;opacity:0.2"></path><path d="M121.89,286.29c0,9.31-3.84,16.66-8.82,17,4.36-.46,7.82-7.91,7.82-17a30.12,30.12,0,0,0-1.8-10.66l.78-.1A27.21,27.21,0,0,1,121.89,286.29Z" style="isolation:isolate;opacity:0.2"></path><path d="M99.52,291l.18-.32,2.07,1.48-.64.33a19.54,19.54,0,0,0,2.91,2l.36-1,2.76,1.53-.65.56a16.29,16.29,0,0,0,3.25.85l.12-.67h2.5l.15.88a16.88,16.88,0,0,0,3.79-.46l-.3-.91,2.93-.64.26.61a20.72,20.72,0,0,0,2.49-1.27l-.59-1,1.78-1.08.71.8a21.94,21.94,0,0,0,4.48-4.58c-1.36.49-2.68.91-4,1.26l.27.69-1.83.52v-.81c-.75.18-1.48.34-2.21.48l.29.85-2.72.74-.31-1.15c-.77.1-1.52.18-2.26.24l.14.91h-3.09v-.78c-1,0-2,0-2.93-.07l-.21.85-2.37-.25.41-.78c-1.2-.14-2.32-.32-3.32-.52l-.21.76-1.93-.65.26-.55a24.62,24.62,0,0,1-4.85-1.74A18.05,18.05,0,0,0,99.52,291Z" style="fill:#263238"></path><path d="M120.71,281.64a1.12,1.12,0,0,1,.17.57,1.21,1.21,0,0,1-2.42.1l-3.55,1.05c9.3,8,9.5-2.81,9.5-2.81Z" style="fill:#263238"></path><path d="M104.59,281.64a1.21,1.21,0,1,0,2.26.67l3.55,1.05c-9.3,8-9.5-2.81-9.5-2.81Z" style="fill:#263238"></path><path d="M164.81,298.26a11.88,11.88,0,0,1-1.69.81c-.17.07-.35.14-.54.2a42.59,42.59,0,0,1-5,1.55l-.76.19a53.44,53.44,0,0,1-6.36,1.13,43.47,43.47,0,0,1-6.41.18l-.77,0c-2-.11-3.77-.32-5.09-.52l-.55-.08c-1.15-.18-1.84-.32-1.84-.32a24.67,24.67,0,0,1,13-5.88l.93-.13.92-.08A24.62,24.62,0,0,1,164.81,298.26Z" style="fill:#4085FF"></path><path d="M164.81,298.26a11.88,11.88,0,0,1-1.69.81c-.17.07-.35.14-.54.2a42.59,42.59,0,0,1-5,1.55l-.76.19a53.44,53.44,0,0,1-6.36,1.13,43.47,43.47,0,0,1-6.41.18l-.77,0c-2-.11-3.77-.32-5.09-.52l-.55-.08c-1.15-.18-1.84-.32-1.84-.32a24.67,24.67,0,0,1,13-5.88l.93-.13.92-.08A24.62,24.62,0,0,1,164.81,298.26Z" style="fill:#fff;isolation:isolate;opacity:0.2"></path><path d="M147.89,295.63a17.05,17.05,0,0,0-9.74,6.13l-.55-.08A18.46,18.46,0,0,1,147.89,295.63Z" style="isolation:isolate;opacity:0.2"></path><path d="M163.11,299.06a4.75,4.75,0,0,1-.54.2,17.08,17.08,0,0,0-12-4A18.48,18.48,0,0,1,163.11,299.06Z" style="isolation:isolate;opacity:0.2"></path><path d="M149.24,295.42c-2.37.51-4.22,3.13-5.23,6.9l-.77,0C144.41,298.52,146.54,295.93,149.24,295.42Z" style="isolation:isolate;opacity:0.2"></path><path d="M157.54,300.82l-.77.19c-1.83-3.52-4.24-5.7-6.7-5.69C152.86,295.23,155.54,297.33,157.54,300.82Z" style="isolation:isolate;opacity:0.2"></path><path d="M143.93,296.64a1.75,1.75,0,0,0,2.12,1.11c1.76-.25,3.83.42,4.67-.08s2.76-.61,3.5-.84,1.46-1.53,2.5-1.35a6.48,6.48,0,0,0-3.25-1.6,2.31,2.31,0,0,1-2.63-2.15c-.28-1.6,1-5.77-.48-6.92a4.87,4.87,0,0,0-3-1.06l-.1,1.69a1.32,1.32,0,0,1,1.91.27,4,4,0,0,1,0,5c-1.33,1.48-1,3.64-1.85,3.73S143.93,296.64,143.93,296.64Z" style="fill:#263238"></path><path d="M143.93,296.64a1.75,1.75,0,0,0,2.12,1.11c1.76-.25,3.83.42,4.67-.08s2.76-.61,3.5-.84,1.46-1.53,2.5-1.35a6.48,6.48,0,0,0-3.25-1.6,2.31,2.31,0,0,1-2.63-2.15c-.28-1.6,1-5.77-.48-6.92a4.87,4.87,0,0,0-3-1.06l-.1,1.69a1.32,1.32,0,0,1,1.91.27,4,4,0,0,1,0,5c-1.33,1.48-1,3.64-1.85,3.73S143.93,296.64,143.93,296.64Z" style="fill:#fff;isolation:isolate;opacity:0.2"></path><polygon points="93.44 416.63 97.93 416.63 103.93 310.37 96.44 310.37 93.44 416.63" style="fill:#4085FF"></polygon><polygon points="169.93 416.63 165.44 416.63 159.44 310.37 166.93 310.37 169.93 416.63" style="fill:#4085FF"></polygon><polygon points="133.98 416.63 129.39 416.63 127.39 310.37 135.98 310.37 133.98 416.63" style="fill:#4085FF"></polygon><g style="isolation:isolate;opacity:0.4"><polygon points="93.45 416.63 97.92 416.63 102.72 331.84 103.92 310.37 96.45 310.37 95.81 333.06 93.45 416.63" style="fill:#fff"></polygon><polygon points="159.45 310.37 160.09 321.74 165.45 416.63 169.93 416.63 167.22 320.48 166.93 310.37 159.45 310.37" style="fill:#fff"></polygon></g><polygon points="127.39 310.37 127.71 327.44 129.39 416.63 133.99 416.63 135.7 326.03 135.99 310.37 127.39 310.37" style="fill:#fff;isolation:isolate;opacity:0.4"></polygon><polygon points="166.93 310.37 159.45 310.37 160.09 321.74 167.22 320.48 166.93 310.37" style="isolation:isolate;opacity:0.2"></polygon><polygon points="135.99 310.37 127.39 310.37 127.71 327.44 135.7 326.03 135.99 310.37" style="isolation:isolate;opacity:0.2"></polygon><polygon points="95.81 333.06 102.72 331.84 103.92 310.37 96.45 310.37 95.81 333.06" style="isolation:isolate;opacity:0.2"></polygon><path d="M95,301.84h73.38a2.08,2.08,0,0,1,2.08,2.08v9.35a0,0,0,0,1,0,0H92.91a0,0,0,0,1,0,0v-9.35A2.08,2.08,0,0,1,95,301.84Z" transform="translate(263.37 615.11) rotate(180)" style="fill:#4085FF"></path><path d="M95,301.84h73.38a2.08,2.08,0,0,1,2.08,2.08v9.35a0,0,0,0,1,0,0H92.91a0,0,0,0,1,0,0v-9.35A2.08,2.08,0,0,1,95,301.84Z" transform="translate(263.37 615.11) rotate(180)" style="isolation:isolate;opacity:0.2"></path><path d="M85.89,305.88h91.59a2.37,2.37,0,0,0,2.38-2.37h0a2.38,2.38,0,0,0-2.38-2.38H85.89a2.38,2.38,0,0,0-2.38,2.38h0A2.37,2.37,0,0,0,85.89,305.88Z" style="fill:#4085FF"></path></g></svg>